<svg version="1.0" preserveAspectRatio="xMidYMid meet" viewBox="0 145.74974650200602 378.75 85.49999794800001" zoomAndPan="magnify" xmlns:xlink="http://www.w3.org/1999/xlink" xmlns="http://www.w3.org/2000/svg" style="max-height: 500px" width="378.75" height="85.49999794800001"><defs><g/><clipPath id="08c49ddd98"><path clip-rule="nonzero" d="M 0 148.042969 L 78.910156 148.042969 L 78.910156 226.957031 L 0 226.957031 Z M 0 148.042969"/></clipPath><clipPath id="2e3d8befd7"><path clip-rule="nonzero" d="M 39.457031 148.042969 C 17.664062 148.042969 0 165.710938 0 187.5 C 0 209.289062 17.664062 226.957031 39.457031 226.957031 C 61.246094 226.957031 78.910156 209.289062 78.910156 187.5 C 78.910156 165.710938 61.246094 148.042969 39.457031 148.042969 Z M 39.457031 148.042969"/></clipPath><clipPath id="2fca2022d6"><path clip-rule="nonzero" d="M 13 185 L 70.738281 185 L 70.738281 214.960938 L 13 214.960938 Z M 13 185"/></clipPath><clipPath id="da52a4af48"><path clip-rule="nonzero" d="M 8.300781 160 L 66 160 L 66 190 L 8.300781 190 Z M 8.300781 160"/></clipPath></defs><g fill-opacity="1" fill="#ffffff"><g transform="translate(92.31559, 206.480154)"><g><path d="M 4.453125 -37.109375 L 32.5625 -37.109375 C 33.644531 -37.109375 34.4375 -36.984375 34.9375 -36.734375 C 35.445312 -36.484375 35.785156 -36.085938 35.953125 -35.546875 C 36.117188 -35.003906 36.203125 -34.296875 36.203125 -33.421875 C 36.203125 -32.546875 36.117188 -31.847656 35.953125 -31.328125 C 35.785156 -30.804688 35.5 -30.441406 35.09375 -30.234375 C 34.488281 -29.929688 33.628906 -29.78125 32.515625 -29.78125 L 22.859375 -29.78125 L 22.859375 -4.34375 C 22.859375 -3.570312 22.832031 -3 22.78125 -2.625 C 22.726562 -2.257812 22.570312 -1.832031 22.3125 -1.34375 C 22.0625 -0.851562 21.613281 -0.503906 20.96875 -0.296875 C 20.332031 -0.0976562 19.492188 0 18.453125 0 C 17.410156 0 16.578125 -0.0976562 15.953125 -0.296875 C 15.328125 -0.503906 14.890625 -0.851562 14.640625 -1.34375 C 14.390625 -1.832031 14.238281 -2.269531 14.1875 -2.65625 C 14.132812 -3.039062 14.109375 -3.625 14.109375 -4.40625 L 14.109375 -29.78125 L 4.40625 -29.78125 C 3.320312 -29.78125 2.523438 -29.90625 2.015625 -30.15625 C 1.515625 -30.414062 1.179688 -30.8125 1.015625 -31.34375 C 0.847656 -31.882812 0.765625 -32.59375 0.765625 -33.46875 C 0.765625 -34.34375 0.847656 -35.039062 1.015625 -35.5625 C 1.179688 -36.09375 1.46875 -36.457031 1.875 -36.65625 C 2.476562 -36.957031 3.335938 -37.109375 4.453125 -37.109375 Z M 4.453125 -37.109375"/></g></g></g><g fill-opacity="1" fill="#ffffff"><g transform="translate(129.258551, 206.480154)"><g><path d="M 19.3125 -23.8125 C 19.519531 -25.695312 20.851562 -26.640625 23.3125 -26.640625 C 24.625 -26.640625 25.597656 -26.539062 26.234375 -26.34375 C 26.878906 -26.144531 27.328125 -25.789062 27.578125 -25.28125 C 27.835938 -24.769531 27.988281 -24.320312 28.03125 -23.9375 C 28.082031 -23.550781 28.109375 -22.972656 28.109375 -22.203125 L 28.109375 -4.5 C 28.109375 -3.726562 28.082031 -3.144531 28.03125 -2.75 C 27.988281 -2.363281 27.847656 -1.921875 27.609375 -1.421875 C 27.140625 -0.535156 25.984375 -0.09375 24.140625 -0.09375 C 22.304688 -0.09375 21.078125 -0.320312 20.453125 -0.78125 C 19.828125 -1.238281 19.460938 -1.90625 19.359375 -2.78125 C 18.117188 -0.988281 16.039062 -0.09375 13.125 -0.09375 C 10.207031 -0.09375 7.5 -1.425781 5 -4.09375 C 2.507812 -6.757812 1.265625 -9.851562 1.265625 -13.375 C 1.265625 -16.894531 2.519531 -19.976562 5.03125 -22.625 C 7.539062 -25.269531 10.296875 -26.59375 13.296875 -26.59375 C 14.441406 -26.59375 15.484375 -26.390625 16.421875 -25.984375 C 17.367188 -25.578125 18.023438 -25.195312 18.390625 -24.84375 C 18.765625 -24.5 19.070312 -24.15625 19.3125 -23.8125 Z M 10.109375 -13.296875 C 10.109375 -12.179688 10.546875 -11.175781 11.421875 -10.28125 C 12.296875 -9.394531 13.359375 -8.953125 14.609375 -8.953125 C 15.859375 -8.953125 16.894531 -9.40625 17.71875 -10.3125 C 18.539062 -11.226562 18.953125 -12.234375 18.953125 -13.328125 C 18.953125 -14.421875 18.554688 -15.4375 17.765625 -16.375 C 16.972656 -17.320312 15.910156 -17.796875 14.578125 -17.796875 C 13.253906 -17.796875 12.175781 -17.320312 11.34375 -16.375 C 10.519531 -15.4375 10.109375 -14.410156 10.109375 -13.296875 Z M 10.109375 -13.296875"/></g></g></g><g fill-opacity="1" fill="#ffffff"><g transform="translate(159.378943, 206.480154)"><g><path d="M 2.015625 -34.734375 C 2.015625 -35.515625 2.039062 -36.097656 2.09375 -36.484375 C 2.144531 -36.867188 2.289062 -37.316406 2.53125 -37.828125 C 3 -38.734375 4.3125 -39.1875 6.46875 -39.1875 C 8.53125 -39.1875 9.8125 -38.734375 10.3125 -37.828125 C 10.582031 -37.316406 10.742188 -36.859375 10.796875 -36.453125 C 10.847656 -36.046875 10.875 -35.457031 10.875 -34.6875 L 10.875 -11.28125 C 10.875 -10.0625 10.972656 -9.289062 11.171875 -8.96875 C 11.378906 -8.65625 11.828125 -8.5 12.515625 -8.5 C 13.203125 -8.5 13.664062 -8.472656 13.90625 -8.421875 C 14.144531 -8.367188 14.429688 -8.222656 14.765625 -7.984375 C 15.441406 -7.546875 15.78125 -6.351562 15.78125 -4.40625 C 15.78125 -2.28125 15.441406 -0.976562 14.765625 -0.5 C 13.890625 0.101562 11.800781 0.203125 8.5 -0.203125 C 5.894531 -0.535156 4.207031 -1.394531 3.4375 -2.78125 C 2.488281 -4.4375 2.015625 -7.066406 2.015625 -10.671875 Z M 2.015625 -34.734375"/></g></g></g><g fill-opacity="1" fill="#ffffff"><g transform="translate(175.904727, 206.480154)"><g><path d="M 27.703125 -16.515625 C 27.703125 -14.441406 27.1875 -12.90625 26.15625 -11.90625 C 25.132812 -10.914062 24 -10.421875 22.75 -10.421875 L 10.765625 -10.421875 C 10.765625 -9.472656 11.320312 -8.675781 12.4375 -8.03125 C 13.550781 -7.394531 14.664062 -7.078125 15.78125 -7.078125 C 17.726562 -7.078125 19.257812 -7.28125 20.375 -7.6875 L 20.9375 -7.890625 C 21.738281 -8.253906 22.410156 -8.4375 22.953125 -8.4375 C 24.035156 -8.4375 24.960938 -7.679688 25.734375 -6.171875 C 26.171875 -5.253906 26.390625 -4.476562 26.390625 -3.84375 C 26.390625 -0.84375 22.800781 0.65625 15.625 0.65625 C 13.125 0.65625 10.90625 0.226562 8.96875 -0.625 C 7.03125 -1.488281 5.523438 -2.628906 4.453125 -4.046875 C 2.328125 -6.773438 1.265625 -9.828125 1.265625 -13.203125 C 1.265625 -17.441406 2.632812 -20.832031 5.375 -23.375 C 8.125 -25.925781 11.554688 -27.203125 15.671875 -27.203125 C 20.359375 -27.203125 23.796875 -25.550781 25.984375 -22.25 C 27.128906 -20.5 27.703125 -18.585938 27.703125 -16.515625 Z M 17.046875 -15.015625 C 18.316406 -15.015625 18.953125 -15.554688 18.953125 -16.640625 C 18.953125 -17.410156 18.65625 -18.03125 18.0625 -18.5 C 17.476562 -18.976562 16.640625 -19.21875 15.546875 -19.21875 C 14.453125 -19.21875 13.363281 -18.769531 12.28125 -17.875 C 11.207031 -16.976562 10.671875 -16.023438 10.671875 -15.015625 Z M 17.046875 -15.015625"/></g></g></g><g fill-opacity="1" fill="#ffffff"><g transform="translate(204.862768, 206.480154)"><g><path d="M 16.84375 -26.640625 C 20.207031 -26.640625 23.007812 -25.347656 25.25 -22.765625 C 27.5 -20.191406 28.625 -17.050781 28.625 -13.34375 L 28.625 -4.453125 C 28.625 -3.671875 28.597656 -3.085938 28.546875 -2.703125 C 28.492188 -2.316406 28.347656 -1.890625 28.109375 -1.421875 C 27.640625 -0.503906 26.328125 -0.046875 24.171875 -0.046875 C 21.773438 -0.046875 20.390625 -0.671875 20.015625 -1.921875 C 19.816406 -2.492188 19.71875 -3.351562 19.71875 -4.5 L 19.71875 -13.40625 C 19.71875 -14.78125 19.320312 -15.851562 18.53125 -16.625 C 17.738281 -17.40625 16.675781 -17.796875 15.34375 -17.796875 C 14.007812 -17.796875 12.929688 -17.390625 12.109375 -16.578125 C 11.285156 -15.773438 10.875 -14.71875 10.875 -13.40625 L 10.875 -4.453125 C 10.875 -3.671875 10.847656 -3.085938 10.796875 -2.703125 C 10.742188 -2.316406 10.582031 -1.890625 10.3125 -1.421875 C 9.875 -0.503906 8.578125 -0.046875 6.421875 -0.046875 C 4.296875 -0.046875 3 -0.503906 2.53125 -1.421875 C 2.289062 -1.921875 2.144531 -2.363281 2.09375 -2.75 C 2.039062 -3.144531 2.015625 -3.726562 2.015625 -4.5 L 2.015625 -22.40625 C 2.015625 -23.144531 2.039062 -23.707031 2.09375 -24.09375 C 2.144531 -24.476562 2.304688 -24.90625 2.578125 -25.375 C 3.046875 -26.21875 4.34375 -26.640625 6.46875 -26.640625 C 8.53125 -26.640625 9.796875 -26.253906 10.265625 -25.484375 C 10.597656 -24.910156 10.765625 -24.21875 10.765625 -23.40625 C 10.898438 -23.644531 11.203125 -23.984375 11.671875 -24.421875 C 12.148438 -24.859375 12.609375 -25.210938 13.046875 -25.484375 C 14.191406 -26.253906 15.457031 -26.640625 16.84375 -26.640625 Z M 16.84375 -26.640625"/></g></g></g><g fill-opacity="1" fill="#ffffff"><g transform="translate(235.488545, 206.480154)"><g><path d="M 17.5 -17.703125 L 14.203125 -17.90625 L 14.203125 -10.921875 C 14.203125 -10.015625 14.34375 -9.359375 14.625 -8.953125 C 14.914062 -8.546875 15.457031 -8.34375 16.25 -8.34375 C 17.039062 -8.34375 17.644531 -8.316406 18.0625 -8.265625 C 18.488281 -8.210938 18.941406 -8.050781 19.421875 -7.78125 C 20.191406 -7.34375 20.578125 -6.21875 20.578125 -4.40625 C 20.578125 -2.28125 20.101562 -0.976562 19.15625 -0.5 C 18.65625 -0.269531 18.207031 -0.128906 17.8125 -0.078125 C 17.425781 -0.0234375 16.863281 0 16.125 0 C 12.625 0 9.960938 -0.789062 8.140625 -2.375 C 6.316406 -3.957031 5.40625 -6.640625 5.40625 -10.421875 L 5.40625 -17.90625 C 4.769531 -17.800781 4.078125 -17.75 3.328125 -17.75 C 2.585938 -17.75 1.972656 -18.035156 1.484375 -18.609375 C 1.003906 -19.179688 0.765625 -20.15625 0.765625 -21.53125 C 0.765625 -22.914062 0.847656 -23.921875 1.015625 -24.546875 C 1.179688 -25.171875 1.414062 -25.617188 1.71875 -25.890625 C 2.257812 -26.328125 2.929688 -26.546875 3.734375 -26.546875 L 5.40625 -26.34375 L 5.40625 -31.546875 C 5.40625 -32.328125 5.429688 -32.898438 5.484375 -33.265625 C 5.535156 -33.640625 5.695312 -34.046875 5.96875 -34.484375 C 6.40625 -35.328125 7.703125 -35.75 9.859375 -35.75 C 12.148438 -35.75 13.515625 -35.125 13.953125 -33.875 C 14.117188 -33.332031 14.203125 -32.472656 14.203125 -31.296875 L 14.203125 -26.34375 C 15.691406 -26.476562 16.8125 -26.546875 17.5625 -26.546875 C 18.320312 -26.546875 18.894531 -26.519531 19.28125 -26.46875 C 19.675781 -26.414062 20.125 -26.253906 20.625 -25.984375 C 21.5 -25.546875 21.9375 -24.25 21.9375 -22.09375 C 21.9375 -19.96875 21.484375 -18.671875 20.578125 -18.203125 C 20.078125 -17.960938 19.628906 -17.816406 19.234375 -17.765625 C 18.847656 -17.722656 18.269531 -17.703125 17.5 -17.703125 Z M 17.5 -17.703125"/></g></g></g><g fill-opacity="1" fill="#ffffff"><g transform="translate(258.179912, 206.480154)"><g><path d="M 2.578125 -5.203125 C 1.703125 -6.285156 1.265625 -7.253906 1.265625 -8.109375 C 1.265625 -8.972656 1.988281 -10.113281 3.4375 -11.53125 C 4.28125 -12.332031 5.171875 -12.734375 6.109375 -12.734375 C 7.054688 -12.734375 8.375 -11.894531 10.0625 -10.21875 C 10.53125 -9.644531 11.203125 -9.09375 12.078125 -8.5625 C 12.960938 -8.039062 13.773438 -7.78125 14.515625 -7.78125 C 17.648438 -7.78125 19.21875 -9.0625 19.21875 -11.625 C 19.21875 -12.40625 18.785156 -13.054688 17.921875 -13.578125 C 17.066406 -14.097656 16 -14.472656 14.71875 -14.703125 C 13.4375 -14.941406 12.050781 -15.320312 10.5625 -15.84375 C 9.082031 -16.375 7.703125 -16.992188 6.421875 -17.703125 C 5.140625 -18.410156 4.066406 -19.53125 3.203125 -21.0625 C 2.347656 -22.59375 1.921875 -24.4375 1.921875 -26.59375 C 1.921875 -29.5625 3.023438 -32.148438 5.234375 -34.359375 C 7.441406 -36.566406 10.453125 -37.671875 14.265625 -37.671875 C 16.285156 -37.671875 18.128906 -37.40625 19.796875 -36.875 C 21.460938 -36.351562 22.617188 -35.828125 23.265625 -35.296875 L 24.515625 -34.328125 C 25.566406 -33.347656 26.09375 -32.519531 26.09375 -31.84375 C 26.09375 -31.175781 25.6875 -30.253906 24.875 -29.078125 C 23.726562 -27.390625 22.550781 -26.546875 21.34375 -26.546875 C 20.632812 -26.546875 19.753906 -26.882812 18.703125 -27.5625 C 18.609375 -27.625 18.414062 -27.789062 18.125 -28.0625 C 17.84375 -28.332031 17.582031 -28.550781 17.34375 -28.71875 C 16.632812 -29.15625 15.734375 -29.375 14.640625 -29.375 C 13.546875 -29.375 12.632812 -29.113281 11.90625 -28.59375 C 11.1875 -28.070312 10.828125 -27.347656 10.828125 -26.421875 C 10.828125 -25.492188 11.253906 -24.742188 12.109375 -24.171875 C 12.972656 -23.597656 14.039062 -23.207031 15.3125 -23 C 16.59375 -22.800781 17.992188 -22.488281 19.515625 -22.0625 C 21.035156 -21.644531 22.4375 -21.132812 23.71875 -20.53125 C 25 -19.925781 26.066406 -18.875 26.921875 -17.375 C 27.785156 -15.875 28.21875 -14.023438 28.21875 -11.828125 C 28.21875 -9.640625 27.773438 -7.710938 26.890625 -6.046875 C 26.015625 -4.378906 24.875 -3.085938 23.46875 -2.171875 C 20.726562 -0.390625 17.8125 0.5 14.71875 0.5 C 13.132812 0.5 11.632812 0.304688 10.21875 -0.078125 C 8.800781 -0.460938 7.65625 -0.941406 6.78125 -1.515625 C 4.988281 -2.597656 3.738281 -3.644531 3.03125 -4.65625 Z M 2.578125 -5.203125"/></g></g></g><g fill-opacity="1" fill="#ffffff"><g transform="translate(287.643315, 206.480154)"><g><path d="M 26.796875 -26.34375 C 28.785156 -25.46875 29.78125 -24.40625 29.78125 -23.15625 C 29.78125 -22.550781 29.644531 -21.976562 29.375 -21.4375 C 29.101562 -20.894531 28.96875 -20.609375 28.96875 -20.578125 L 15.71875 9.046875 C 15.457031 9.691406 15.234375 10.179688 15.046875 10.515625 C 14.859375 10.847656 14.5625 11.164062 14.15625 11.46875 C 13.75 11.78125 13.242188 11.9375 12.640625 11.9375 C 12.035156 11.9375 11.140625 11.679688 9.953125 11.171875 C 7.972656 10.296875 6.984375 9.253906 6.984375 8.046875 C 6.984375 7.234375 8.597656 3.367188 11.828125 -3.546875 L 1.765625 -20.484375 C 1.097656 -21.585938 0.765625 -22.410156 0.765625 -22.953125 C 0.765625 -24.035156 1.671875 -25.113281 3.484375 -26.1875 C 4.628906 -26.863281 5.519531 -27.203125 6.15625 -27.203125 C 6.800781 -27.203125 7.328125 -27.066406 7.734375 -26.796875 C 8.140625 -26.523438 8.4375 -26.242188 8.625 -25.953125 C 8.8125 -25.671875 9.738281 -24.101562 11.40625 -21.25 C 13.070312 -18.40625 14.664062 -15.753906 16.1875 -13.296875 C 16.351562 -13.835938 17.257812 -15.921875 18.90625 -19.546875 C 20.5625 -23.171875 21.445312 -25.097656 21.5625 -25.328125 C 21.675781 -25.566406 21.867188 -25.851562 22.140625 -26.1875 C 22.578125 -26.757812 23.191406 -27.046875 23.984375 -27.046875 C 24.785156 -27.046875 25.722656 -26.8125 26.796875 -26.34375 Z M 26.796875 -26.34375"/></g></g></g><g fill-opacity="1" fill="#ffffff"><g transform="translate(318.168001, 206.480154)"><g><path d="M 16.84375 -26.640625 C 20.207031 -26.640625 23.007812 -25.347656 25.25 -22.765625 C 27.5 -20.191406 28.625 -17.050781 28.625 -13.34375 L 28.625 -4.453125 C 28.625 -3.671875 28.597656 -3.085938 28.546875 -2.703125 C 28.492188 -2.316406 28.347656 -1.890625 28.109375 -1.421875 C 27.640625 -0.503906 26.328125 -0.046875 24.171875 -0.046875 C 21.773438 -0.046875 20.390625 -0.671875 20.015625 -1.921875 C 19.816406 -2.492188 19.71875 -3.351562 19.71875 -4.5 L 19.71875 -13.40625 C 19.71875 -14.78125 19.320312 -15.851562 18.53125 -16.625 C 17.738281 -17.40625 16.675781 -17.796875 15.34375 -17.796875 C 14.007812 -17.796875 12.929688 -17.390625 12.109375 -16.578125 C 11.285156 -15.773438 10.875 -14.71875 10.875 -13.40625 L 10.875 -4.453125 C 10.875 -3.671875 10.847656 -3.085938 10.796875 -2.703125 C 10.742188 -2.316406 10.582031 -1.890625 10.3125 -1.421875 C 9.875 -0.503906 8.578125 -0.046875 6.421875 -0.046875 C 4.296875 -0.046875 3 -0.503906 2.53125 -1.421875 C 2.289062 -1.921875 2.144531 -2.363281 2.09375 -2.75 C 2.039062 -3.144531 2.015625 -3.726562 2.015625 -4.5 L 2.015625 -22.40625 C 2.015625 -23.144531 2.039062 -23.707031 2.09375 -24.09375 C 2.144531 -24.476562 2.304688 -24.90625 2.578125 -25.375 C 3.046875 -26.21875 4.34375 -26.640625 6.46875 -26.640625 C 8.53125 -26.640625 9.796875 -26.253906 10.265625 -25.484375 C 10.597656 -24.910156 10.765625 -24.21875 10.765625 -23.40625 C 10.898438 -23.644531 11.203125 -23.984375 11.671875 -24.421875 C 12.148438 -24.859375 12.609375 -25.210938 13.046875 -25.484375 C 14.191406 -26.253906 15.457031 -26.640625 16.84375 -26.640625 Z M 16.84375 -26.640625"/></g></g></g><g fill-opacity="1" fill="#ffffff"><g transform="translate(348.793778, 206.480154)"><g><path d="M 10.359375 -13.3125 C 10.359375 -11.882812 10.832031 -10.773438 11.78125 -9.984375 C 12.726562 -9.191406 13.726562 -8.796875 14.78125 -8.796875 C 15.84375 -8.796875 16.835938 -9.109375 17.765625 -9.734375 C 18.691406 -10.359375 19.441406 -10.671875 20.015625 -10.671875 C 21.035156 -10.671875 22.269531 -9.773438 23.71875 -7.984375 C 24.488281 -7.003906 24.875 -6.128906 24.875 -5.359375 C 24.875 -4.078125 23.945312 -2.878906 22.09375 -1.765625 C 20.175781 -0.421875 17.816406 0.25 15.015625 0.25 C 11.878906 0.25 8.863281 -0.878906 5.96875 -3.140625 C 4.582031 -4.210938 3.453125 -5.648438 2.578125 -7.453125 C 1.703125 -9.253906 1.265625 -11.242188 1.265625 -13.421875 C 1.265625 -15.597656 1.703125 -17.570312 2.578125 -19.34375 C 3.453125 -21.113281 4.582031 -22.535156 5.96875 -23.609375 C 8.757812 -25.835938 11.742188 -26.953125 14.921875 -26.953125 C 16.203125 -26.953125 17.445312 -26.773438 18.65625 -26.421875 C 19.875 -26.066406 20.769531 -25.71875 21.34375 -25.375 L 22.140625 -24.875 C 22.753906 -24.46875 23.226562 -24.148438 23.5625 -23.921875 C 24.4375 -23.242188 24.875 -22.472656 24.875 -21.609375 C 24.875 -20.753906 24.519531 -19.785156 23.8125 -18.703125 C 22.601562 -16.847656 21.441406 -15.921875 20.328125 -15.921875 C 19.679688 -15.921875 18.769531 -16.296875 17.59375 -17.046875 C 16.988281 -17.617188 16.117188 -17.90625 14.984375 -17.90625 C 13.859375 -17.90625 12.804688 -17.5 11.828125 -16.6875 C 10.847656 -15.875 10.359375 -14.75 10.359375 -13.3125 Z M 10.359375 -13.3125"/></g></g></g><g clip-path="url(#08c49ddd98)"><g clip-path="url(#2e3d8befd7)"><path fill-rule="nonzero" fill-opacity="1" d="M 0 148.042969 L 78.910156 148.042969 L 78.910156 226.957031 L 0 226.957031 Z M 0 148.042969" fill="#1cdeb0"/></g></g><g clip-path="url(#2fca2022d6)"><path fill-rule="nonzero" fill-opacity="1" d="M 65.65625 185.921875 C 65.484375 185.757812 65.292969 185.625 65.078125 185.527344 L 64.871094 185.527344 C 64.695312 185.46875 64.515625 185.4375 64.332031 185.425781 L 64.105469 185.425781 C 63.921875 185.4375 63.742188 185.46875 63.566406 185.527344 L 63.359375 185.527344 L 59.21875 187.597656 C 58.964844 187.714844 58.742188 187.878906 58.554688 188.085938 C 58.367188 188.292969 58.222656 188.527344 58.132812 188.789062 C 58.039062 189.054688 58 189.328125 58.015625 189.605469 C 58.035156 189.886719 58.105469 190.152344 58.230469 190.402344 C 58.355469 190.652344 58.523438 190.867188 58.734375 191.050781 C 58.949219 191.234375 59.1875 191.367188 59.453125 191.453125 C 59.722656 191.535156 59.992188 191.566406 60.273438 191.539062 C 60.550781 191.515625 60.816406 191.4375 61.0625 191.304688 L 61.910156 190.890625 C 61.71875 192.183594 61.417969 193.449219 61.007812 194.691406 C 60.597656 195.929688 60.082031 197.128906 59.46875 198.28125 C 58.851562 199.433594 58.140625 200.523438 57.335938 201.554688 C 56.53125 202.585938 55.644531 203.539062 54.675781 204.414062 C 53.710938 205.292969 52.671875 206.082031 51.570312 206.78125 C 50.464844 207.480469 49.308594 208.078125 48.101562 208.578125 C 46.894531 209.078125 45.652344 209.472656 44.378906 209.757812 C 43.101562 210.046875 41.8125 210.222656 40.507812 210.285156 C 39.203125 210.347656 37.898438 210.300781 36.601562 210.140625 C 35.304688 209.980469 34.03125 209.710938 32.78125 209.332031 C 31.53125 208.953125 30.320312 208.472656 29.15625 207.882812 C 27.988281 207.296875 26.878906 206.613281 25.828125 205.835938 C 24.777344 205.054688 23.804688 204.195312 22.902344 203.246094 C 22 202.300781 21.1875 201.285156 20.460938 200.199219 C 19.734375 199.113281 19.105469 197.972656 18.574219 196.777344 C 18.046875 195.582031 17.621094 194.351562 17.304688 193.085938 C 17.234375 192.816406 17.117188 192.574219 16.953125 192.355469 C 16.789062 192.136719 16.585938 191.957031 16.351562 191.816406 C 16.113281 191.675781 15.859375 191.585938 15.585938 191.546875 C 15.3125 191.511719 15.042969 191.523438 14.777344 191.59375 C 14.511719 191.664062 14.269531 191.777344 14.050781 191.945312 C 13.828125 192.109375 13.648438 192.3125 13.511719 192.546875 C 13.371094 192.785156 13.28125 193.039062 13.242188 193.3125 C 13.203125 193.582031 13.21875 193.851562 13.289062 194.117188 C 13.667969 195.597656 14.171875 197.03125 14.796875 198.421875 C 15.425781 199.8125 16.164062 201.140625 17.015625 202.40625 C 17.867188 203.671875 18.816406 204.855469 19.871094 205.960938 C 20.925781 207.066406 22.0625 208.070312 23.285156 208.980469 C 24.511719 209.890625 25.804688 210.691406 27.164062 211.382812 C 28.523438 212.074219 29.933594 212.644531 31.390625 213.09375 C 32.847656 213.542969 34.332031 213.871094 35.84375 214.066406 C 37.355469 214.265625 38.875 214.335938 40.398438 214.273438 C 41.925781 214.214844 43.433594 214.027344 44.925781 213.710938 C 46.417969 213.394531 47.871094 212.953125 49.289062 212.390625 C 50.707031 211.824219 52.066406 211.144531 53.367188 210.351562 C 54.667969 209.554688 55.894531 208.65625 57.042969 207.652344 C 58.191406 206.648438 59.25 205.554688 60.210938 204.371094 C 61.175781 203.1875 62.03125 201.933594 62.78125 200.605469 C 63.527344 199.277344 64.160156 197.894531 64.675781 196.457031 C 65.1875 195.019531 65.578125 193.550781 65.84375 192.050781 L 66.878906 193.085938 C 67.074219 193.253906 67.296875 193.382812 67.542969 193.46875 C 67.789062 193.550781 68.042969 193.589844 68.304688 193.582031 C 68.5625 193.570312 68.8125 193.511719 69.054688 193.410156 C 69.292969 193.304688 69.503906 193.160156 69.6875 192.976562 C 69.871094 192.792969 70.015625 192.578125 70.121094 192.339844 C 70.226562 192.101562 70.28125 191.851562 70.292969 191.589844 C 70.300781 191.332031 70.265625 191.078125 70.179688 190.832031 C 70.09375 190.585938 69.964844 190.363281 69.796875 190.164062 Z M 65.65625 185.921875" fill="#ffffff"/></g><g clip-path="url(#da52a4af48)"><path fill-rule="nonzero" fill-opacity="1" d="M 39.347656 164.621094 C 40.601562 164.621094 41.847656 164.726562 43.082031 164.929688 C 44.320312 165.136719 45.53125 165.441406 46.714844 165.847656 C 47.902344 166.253906 49.046875 166.753906 50.148438 167.347656 C 51.253906 167.941406 52.300781 168.625 53.289062 169.390625 C 54.28125 170.160156 55.203125 171.003906 56.054688 171.921875 C 56.90625 172.84375 57.675781 173.824219 58.363281 174.871094 C 59.054688 175.917969 59.652344 177.015625 60.160156 178.160156 C 60.667969 179.304688 61.078125 180.484375 61.390625 181.699219 C 61.460938 181.964844 61.578125 182.207031 61.742188 182.429688 C 61.910156 182.648438 62.109375 182.828125 62.347656 182.96875 C 62.582031 183.109375 62.835938 183.195312 63.109375 183.234375 C 63.382812 183.273438 63.652344 183.257812 63.917969 183.191406 C 64.183594 183.121094 64.425781 183.003906 64.648438 182.839844 C 64.867188 182.671875 65.046875 182.472656 65.1875 182.234375 C 65.324219 182 65.414062 181.746094 65.453125 181.472656 C 65.492188 181.199219 65.476562 180.929688 65.40625 180.664062 C 65.027344 179.1875 64.523438 177.753906 63.898438 176.363281 C 63.273438 174.972656 62.535156 173.640625 61.683594 172.375 C 60.832031 171.109375 59.878906 169.925781 58.824219 168.824219 C 57.773438 167.71875 56.632812 166.710938 55.410156 165.800781 C 54.183594 164.890625 52.894531 164.089844 51.53125 163.402344 C 50.171875 162.710938 48.761719 162.140625 47.304688 161.6875 C 45.847656 161.238281 44.363281 160.914062 42.851562 160.714844 C 41.339844 160.519531 39.820312 160.449219 38.296875 160.507812 C 36.773438 160.570312 35.261719 160.757812 33.769531 161.074219 C 32.277344 161.390625 30.824219 161.832031 29.40625 162.394531 C 27.988281 162.957031 26.628906 163.636719 25.328125 164.433594 C 24.027344 165.226562 22.800781 166.128906 21.652344 167.132812 C 20.503906 168.136719 19.449219 169.226562 18.484375 170.410156 C 17.523438 171.59375 16.664062 172.851562 15.917969 174.179688 C 15.167969 175.507812 14.535156 176.890625 14.019531 178.328125 C 13.507812 179.761719 13.117188 181.230469 12.851562 182.734375 L 11.820312 181.699219 C 11.621094 181.53125 11.398438 181.402344 11.152344 181.316406 C 10.90625 181.230469 10.652344 181.191406 10.390625 181.203125 C 10.132812 181.214844 9.882812 181.269531 9.644531 181.375 C 9.402344 181.480469 9.191406 181.625 9.007812 181.808594 C 8.824219 181.992188 8.679688 182.203125 8.574219 182.441406 C 8.472656 182.683594 8.414062 182.929688 8.402344 183.191406 C 8.394531 183.453125 8.429688 183.707031 8.515625 183.953125 C 8.601562 184.199219 8.730469 184.421875 8.898438 184.617188 L 13.039062 188.757812 C 13.429688 189.203125 13.917969 189.4375 14.507812 189.460938 C 14.8125 189.457031 15.105469 189.386719 15.378906 189.253906 L 19.519531 187.183594 C 19.753906 187.058594 19.960938 186.890625 20.132812 186.683594 C 20.304688 186.476562 20.429688 186.246094 20.511719 185.988281 C 20.59375 185.734375 20.625 185.472656 20.605469 185.203125 C 20.582031 184.933594 20.511719 184.679688 20.394531 184.4375 C 20.273438 184.199219 20.113281 183.988281 19.910156 183.808594 C 19.710938 183.632812 19.484375 183.5 19.230469 183.410156 C 18.976562 183.320312 18.714844 183.28125 18.445312 183.292969 C 18.175781 183.304688 17.921875 183.367188 17.675781 183.480469 L 16.828125 183.894531 C 17.035156 182.5625 17.359375 181.257812 17.796875 179.984375 C 18.234375 178.707031 18.78125 177.480469 19.4375 176.304688 C 20.097656 175.125 20.851562 174.015625 21.707031 172.972656 C 22.558594 171.929688 23.5 170.96875 24.523438 170.09375 C 25.546875 169.214844 26.640625 168.4375 27.804688 167.753906 C 28.964844 167.070312 30.179688 166.496094 31.445312 166.03125 C 32.710938 165.5625 34.007812 165.210938 35.335938 164.976562 C 36.660156 164.738281 38 164.621094 39.347656 164.621094 Z M 39.347656 164.621094" fill="#ffffff"/></g></svg>