<svg version="1.0" preserveAspectRatio="xMidYMid meet" viewBox="31.234350000000003 153.74249631018 315.75 75.74999818200001" zoomAndPan="magnify" xmlns:xlink="http://www.w3.org/1999/xlink" xmlns="http://www.w3.org/2000/svg" style="max-height: 500px" width="315.75" height="75.74999818200001"><defs><g/><clipPath id="fdd8c04d38"><path clip-rule="nonzero" d="M 37.5 160.265625 L 100.628906 160.265625 L 100.628906 223.394531 L 37.5 223.394531 Z M 37.5 160.265625"/></clipPath><clipPath id="a47d106b18"><path clip-rule="nonzero" d="M 69.0625 160.265625 C 51.632812 160.265625 37.5 174.394531 37.5 191.828125 C 37.5 209.261719 51.632812 223.394531 69.0625 223.394531 C 86.496094 223.394531 100.628906 209.261719 100.628906 191.828125 C 100.628906 174.394531 86.496094 160.265625 69.0625 160.265625 Z M 69.0625 160.265625"/></clipPath><clipPath id="30839031be"><path clip-rule="nonzero" d="M 48 190 L 94 190 L 94 213.796875 L 48 213.796875 Z M 48 190"/></clipPath><clipPath id="fbb8f8648c"><path clip-rule="nonzero" d="M 44.140625 170 L 90 170 L 90 194 L 44.140625 194 Z M 44.140625 170"/></clipPath></defs><g fill-opacity="1" fill="#ffffff"><g transform="translate(111.352462, 207.012525)"><g><path d="M 3.5625 -29.6875 L 26.046875 -29.6875 C 26.910156 -29.6875 27.546875 -29.582031 27.953125 -29.375 C 28.359375 -29.175781 28.628906 -28.863281 28.765625 -28.4375 C 28.898438 -28.007812 28.96875 -27.441406 28.96875 -26.734375 C 28.96875 -26.035156 28.898438 -25.476562 28.765625 -25.0625 C 28.628906 -24.644531 28.398438 -24.351562 28.078125 -24.1875 C 27.585938 -23.945312 26.898438 -23.828125 26.015625 -23.828125 L 18.28125 -23.828125 L 18.28125 -3.484375 C 18.28125 -2.859375 18.257812 -2.394531 18.21875 -2.09375 C 18.175781 -1.800781 18.054688 -1.457031 17.859375 -1.0625 C 17.660156 -0.675781 17.300781 -0.398438 16.78125 -0.234375 C 16.269531 -0.078125 15.597656 0 14.765625 0 C 13.929688 0 13.265625 -0.078125 12.765625 -0.234375 C 12.265625 -0.398438 11.910156 -0.675781 11.703125 -1.0625 C 11.503906 -1.457031 11.382812 -1.8125 11.34375 -2.125 C 11.300781 -2.4375 11.28125 -2.898438 11.28125 -3.515625 L 11.28125 -23.828125 L 3.515625 -23.828125 C 2.648438 -23.828125 2.015625 -23.925781 1.609375 -24.125 C 1.210938 -24.332031 0.945312 -24.648438 0.8125 -25.078125 C 0.675781 -25.515625 0.609375 -26.082031 0.609375 -26.78125 C 0.609375 -27.476562 0.675781 -28.035156 0.8125 -28.453125 C 0.945312 -28.867188 1.175781 -29.160156 1.5 -29.328125 C 1.976562 -29.566406 2.664062 -29.6875 3.5625 -29.6875 Z M 3.5625 -29.6875"/></g></g></g><g fill-opacity="1" fill="#ffffff"><g transform="translate(140.906829, 207.012525)"><g><path d="M 15.453125 -19.046875 C 15.617188 -20.554688 16.6875 -21.3125 18.65625 -21.3125 C 19.707031 -21.3125 20.488281 -21.226562 21 -21.0625 C 21.507812 -20.90625 21.863281 -20.625 22.0625 -20.21875 C 22.269531 -19.820312 22.390625 -19.46875 22.421875 -19.15625 C 22.460938 -18.84375 22.484375 -18.378906 22.484375 -17.765625 L 22.484375 -3.59375 C 22.484375 -2.976562 22.460938 -2.515625 22.421875 -2.203125 C 22.390625 -1.890625 22.28125 -1.53125 22.09375 -1.125 C 21.707031 -0.425781 20.78125 -0.078125 19.3125 -0.078125 C 17.84375 -0.078125 16.859375 -0.257812 16.359375 -0.625 C 15.859375 -0.988281 15.570312 -1.519531 15.5 -2.21875 C 14.5 -0.789062 12.832031 -0.078125 10.5 -0.078125 C 8.164062 -0.078125 6 -1.140625 4 -3.265625 C 2.007812 -5.398438 1.015625 -7.875 1.015625 -10.6875 C 1.015625 -13.507812 2.015625 -15.976562 4.015625 -18.09375 C 6.023438 -20.21875 8.234375 -21.28125 10.640625 -21.28125 C 11.554688 -21.28125 12.390625 -21.117188 13.140625 -20.796875 C 13.898438 -20.472656 14.425781 -20.164062 14.71875 -19.875 C 15.019531 -19.59375 15.265625 -19.316406 15.453125 -19.046875 Z M 8.09375 -10.625 C 8.09375 -9.738281 8.441406 -8.9375 9.140625 -8.21875 C 9.835938 -7.507812 10.6875 -7.15625 11.6875 -7.15625 C 12.6875 -7.15625 13.515625 -7.519531 14.171875 -8.25 C 14.835938 -8.976562 15.171875 -9.78125 15.171875 -10.65625 C 15.171875 -11.53125 14.851562 -12.34375 14.21875 -13.09375 C 13.582031 -13.851562 12.734375 -14.234375 11.671875 -14.234375 C 10.609375 -14.234375 9.742188 -13.851562 9.078125 -13.09375 C 8.421875 -12.34375 8.09375 -11.519531 8.09375 -10.625 Z M 8.09375 -10.625"/></g></g></g><g fill-opacity="1" fill="#ffffff"><g transform="translate(165.00314, 207.012525)"><g><path d="M 1.625 -27.796875 C 1.625 -28.410156 1.640625 -28.875 1.671875 -29.1875 C 1.710938 -29.5 1.828125 -29.859375 2.015625 -30.265625 C 2.398438 -30.984375 3.453125 -31.34375 5.171875 -31.34375 C 6.816406 -31.34375 7.84375 -30.984375 8.25 -30.265625 C 8.46875 -29.859375 8.597656 -29.492188 8.640625 -29.171875 C 8.679688 -28.847656 8.703125 -28.375 8.703125 -27.75 L 8.703125 -9.015625 C 8.703125 -8.046875 8.78125 -7.429688 8.9375 -7.171875 C 9.101562 -6.921875 9.460938 -6.796875 10.015625 -6.796875 C 10.566406 -6.796875 10.9375 -6.773438 11.125 -6.734375 C 11.3125 -6.691406 11.539062 -6.578125 11.8125 -6.390625 C 12.351562 -6.035156 12.625 -5.078125 12.625 -3.515625 C 12.625 -1.816406 12.351562 -0.78125 11.8125 -0.40625 C 11.113281 0.0820312 9.441406 0.164062 6.796875 -0.15625 C 4.722656 -0.425781 3.375 -1.113281 2.75 -2.21875 C 2 -3.539062 1.625 -5.644531 1.625 -8.53125 Z M 1.625 -27.796875"/></g></g></g><g fill-opacity="1" fill="#ffffff"><g transform="translate(178.223767, 207.012525)"><g><path d="M 22.171875 -13.203125 C 22.171875 -11.546875 21.757812 -10.316406 20.9375 -9.515625 C 20.113281 -8.722656 19.203125 -8.328125 18.203125 -8.328125 L 8.609375 -8.328125 C 8.609375 -7.578125 9.050781 -6.941406 9.9375 -6.421875 C 10.832031 -5.910156 11.726562 -5.65625 12.625 -5.65625 C 14.1875 -5.65625 15.410156 -5.820312 16.296875 -6.15625 L 16.75 -6.3125 C 17.394531 -6.601562 17.929688 -6.75 18.359375 -6.75 C 19.222656 -6.75 19.96875 -6.144531 20.59375 -4.9375 C 20.9375 -4.207031 21.109375 -3.585938 21.109375 -3.078125 C 21.109375 -0.671875 18.238281 0.53125 12.5 0.53125 C 10.5 0.53125 8.722656 0.1875 7.171875 -0.5 C 5.628906 -1.1875 4.425781 -2.097656 3.5625 -3.234375 C 1.863281 -5.421875 1.015625 -7.863281 1.015625 -10.5625 C 1.015625 -13.957031 2.113281 -16.671875 4.3125 -18.703125 C 6.507812 -20.742188 9.253906 -21.765625 12.546875 -21.765625 C 16.285156 -21.765625 19.035156 -20.441406 20.796875 -17.796875 C 21.710938 -16.398438 22.171875 -14.867188 22.171875 -13.203125 Z M 13.625 -12.015625 C 14.65625 -12.015625 15.171875 -12.445312 15.171875 -13.3125 C 15.171875 -13.925781 14.929688 -14.421875 14.453125 -14.796875 C 13.984375 -15.179688 13.3125 -15.375 12.4375 -15.375 C 11.5625 -15.375 10.691406 -15.015625 9.828125 -14.296875 C 8.960938 -13.585938 8.53125 -12.828125 8.53125 -12.015625 Z M 13.625 -12.015625"/></g></g></g><g fill-opacity="1" fill="#ffffff"><g transform="translate(201.390198, 207.012525)"><g><path d="M 13.46875 -21.3125 C 16.164062 -21.3125 18.410156 -20.28125 20.203125 -18.21875 C 21.992188 -16.15625 22.890625 -13.640625 22.890625 -10.671875 L 22.890625 -3.5625 C 22.890625 -2.9375 22.867188 -2.46875 22.828125 -2.15625 C 22.796875 -1.851562 22.679688 -1.507812 22.484375 -1.125 C 22.109375 -0.40625 21.0625 -0.046875 19.34375 -0.046875 C 17.425781 -0.046875 16.316406 -0.539062 16.015625 -1.53125 C 15.859375 -1.988281 15.78125 -2.675781 15.78125 -3.59375 L 15.78125 -10.71875 C 15.78125 -11.820312 15.460938 -12.679688 14.828125 -13.296875 C 14.191406 -13.921875 13.335938 -14.234375 12.265625 -14.234375 C 11.203125 -14.234375 10.34375 -13.910156 9.6875 -13.265625 C 9.03125 -12.617188 8.703125 -11.769531 8.703125 -10.71875 L 8.703125 -3.5625 C 8.703125 -2.9375 8.679688 -2.46875 8.640625 -2.15625 C 8.597656 -1.851562 8.46875 -1.507812 8.25 -1.125 C 7.894531 -0.40625 6.859375 -0.046875 5.140625 -0.046875 C 3.441406 -0.046875 2.398438 -0.40625 2.015625 -1.125 C 1.828125 -1.53125 1.710938 -1.890625 1.671875 -2.203125 C 1.640625 -2.515625 1.625 -2.976562 1.625 -3.59375 L 1.625 -17.921875 C 1.625 -18.515625 1.640625 -18.960938 1.671875 -19.265625 C 1.710938 -19.578125 1.84375 -19.925781 2.0625 -20.3125 C 2.4375 -20.976562 3.472656 -21.3125 5.171875 -21.3125 C 6.816406 -21.3125 7.832031 -21.003906 8.21875 -20.390625 C 8.476562 -19.929688 8.609375 -19.378906 8.609375 -18.734375 C 8.722656 -18.921875 8.96875 -19.1875 9.34375 -19.53125 C 9.71875 -19.882812 10.082031 -20.171875 10.4375 -20.390625 C 11.351562 -21.003906 12.363281 -21.3125 13.46875 -21.3125 Z M 13.46875 -21.3125"/></g></g></g><g fill-opacity="1" fill="#ffffff"><g transform="translate(225.890817, 207.012525)"><g><path d="M 14 -14.15625 L 11.375 -14.328125 L 11.375 -8.734375 C 11.375 -8.003906 11.488281 -7.476562 11.71875 -7.15625 C 11.945312 -6.832031 12.375 -6.671875 13 -6.671875 C 13.632812 -6.671875 14.117188 -6.648438 14.453125 -6.609375 C 14.796875 -6.566406 15.15625 -6.441406 15.53125 -6.234375 C 16.15625 -5.878906 16.46875 -4.972656 16.46875 -3.515625 C 16.46875 -1.816406 16.085938 -0.78125 15.328125 -0.40625 C 14.921875 -0.21875 14.5625 -0.101562 14.25 -0.0625 C 13.945312 -0.0195312 13.5 0 12.90625 0 C 10.101562 0 7.972656 -0.628906 6.515625 -1.890625 C 5.054688 -3.160156 4.328125 -5.304688 4.328125 -8.328125 L 4.328125 -14.328125 C 3.816406 -14.242188 3.265625 -14.203125 2.671875 -14.203125 C 2.078125 -14.203125 1.582031 -14.429688 1.1875 -14.890625 C 0.800781 -15.347656 0.609375 -16.128906 0.609375 -17.234375 C 0.609375 -18.335938 0.675781 -19.140625 0.8125 -19.640625 C 0.945312 -20.140625 1.132812 -20.5 1.375 -20.71875 C 1.800781 -21.0625 2.34375 -21.234375 3 -21.234375 L 4.328125 -21.078125 L 4.328125 -25.25 C 4.328125 -25.863281 4.347656 -26.316406 4.390625 -26.609375 C 4.429688 -26.910156 4.5625 -27.238281 4.78125 -27.59375 C 5.125 -28.257812 6.160156 -28.59375 7.890625 -28.59375 C 9.722656 -28.59375 10.816406 -28.097656 11.171875 -27.109375 C 11.304688 -26.671875 11.375 -25.984375 11.375 -25.046875 L 11.375 -21.078125 C 12.550781 -21.179688 13.441406 -21.234375 14.046875 -21.234375 C 14.660156 -21.234375 15.117188 -21.210938 15.421875 -21.171875 C 15.734375 -21.128906 16.09375 -21.003906 16.5 -20.796875 C 17.207031 -20.441406 17.5625 -19.398438 17.5625 -17.671875 C 17.5625 -15.972656 17.195312 -14.9375 16.46875 -14.5625 C 16.0625 -14.375 15.703125 -14.257812 15.390625 -14.21875 C 15.078125 -14.175781 14.613281 -14.15625 14 -14.15625 Z M 14 -14.15625"/></g></g></g><g fill-opacity="1" fill="#ffffff"><g transform="translate(244.043909, 207.012525)"><g><path d="M 2.0625 -4.171875 C 1.363281 -5.035156 1.015625 -5.8125 1.015625 -6.5 C 1.015625 -7.1875 1.59375 -8.09375 2.75 -9.21875 C 3.425781 -9.863281 4.140625 -10.1875 4.890625 -10.1875 C 5.648438 -10.1875 6.703125 -9.515625 8.046875 -8.171875 C 8.421875 -7.710938 8.957031 -7.273438 9.65625 -6.859375 C 10.363281 -6.441406 11.015625 -6.234375 11.609375 -6.234375 C 14.117188 -6.234375 15.375 -7.253906 15.375 -9.296875 C 15.375 -9.921875 15.03125 -10.441406 14.34375 -10.859375 C 13.65625 -11.273438 12.796875 -11.578125 11.765625 -11.765625 C 10.742188 -11.960938 9.640625 -12.269531 8.453125 -12.6875 C 7.265625 -13.101562 6.15625 -13.59375 5.125 -14.15625 C 4.101562 -14.726562 3.25 -15.625 2.5625 -16.84375 C 1.875 -18.070312 1.53125 -19.550781 1.53125 -21.28125 C 1.53125 -23.65625 2.414062 -25.722656 4.1875 -27.484375 C 5.957031 -29.253906 8.363281 -30.140625 11.40625 -30.140625 C 13.019531 -30.140625 14.492188 -29.929688 15.828125 -29.515625 C 17.171875 -29.097656 18.097656 -28.671875 18.609375 -28.234375 L 19.625 -27.46875 C 20.457031 -26.6875 20.875 -26.023438 20.875 -25.484375 C 20.875 -24.941406 20.550781 -24.203125 19.90625 -23.265625 C 18.988281 -21.910156 18.046875 -21.234375 17.078125 -21.234375 C 16.503906 -21.234375 15.800781 -21.503906 14.96875 -22.046875 C 14.882812 -22.097656 14.726562 -22.234375 14.5 -22.453125 C 14.269531 -22.671875 14.0625 -22.847656 13.875 -22.984375 C 13.3125 -23.328125 12.585938 -23.5 11.703125 -23.5 C 10.828125 -23.5 10.097656 -23.289062 9.515625 -22.875 C 8.941406 -22.457031 8.65625 -21.878906 8.65625 -21.140625 C 8.65625 -20.398438 9 -19.800781 9.6875 -19.34375 C 10.375 -18.882812 11.226562 -18.570312 12.25 -18.40625 C 13.28125 -18.238281 14.398438 -17.988281 15.609375 -17.65625 C 16.828125 -17.320312 17.945312 -16.910156 18.96875 -16.421875 C 20 -15.941406 20.859375 -15.097656 21.546875 -13.890625 C 22.234375 -12.691406 22.578125 -11.21875 22.578125 -9.46875 C 22.578125 -7.71875 22.222656 -6.171875 21.515625 -4.828125 C 20.816406 -3.492188 19.898438 -2.460938 18.765625 -1.734375 C 16.585938 -0.304688 14.253906 0.40625 11.765625 0.40625 C 10.503906 0.40625 9.304688 0.25 8.171875 -0.0625 C 7.035156 -0.375 6.117188 -0.757812 5.421875 -1.21875 C 3.992188 -2.082031 2.992188 -2.914062 2.421875 -3.71875 Z M 2.0625 -4.171875"/></g></g></g><g fill-opacity="1" fill="#ffffff"><g transform="translate(267.61463, 207.012525)"><g><path d="M 21.4375 -21.078125 C 23.03125 -20.378906 23.828125 -19.53125 23.828125 -18.53125 C 23.828125 -18.039062 23.71875 -17.578125 23.5 -17.140625 C 23.28125 -16.710938 23.171875 -16.488281 23.171875 -16.46875 L 12.578125 7.234375 C 12.359375 7.753906 12.175781 8.144531 12.03125 8.40625 C 11.882812 8.675781 11.648438 8.929688 11.328125 9.171875 C 11.003906 9.421875 10.597656 9.546875 10.109375 9.546875 C 9.628906 9.546875 8.914062 9.34375 7.96875 8.9375 C 6.375 8.238281 5.578125 7.40625 5.578125 6.4375 C 5.578125 5.789062 6.875 2.703125 9.46875 -2.828125 L 1.421875 -16.390625 C 0.878906 -17.273438 0.609375 -17.929688 0.609375 -18.359375 C 0.609375 -19.222656 1.335938 -20.085938 2.796875 -20.953125 C 3.710938 -21.492188 4.425781 -21.765625 4.9375 -21.765625 C 5.445312 -21.765625 5.863281 -21.65625 6.1875 -21.4375 C 6.507812 -21.21875 6.742188 -20.992188 6.890625 -20.765625 C 7.046875 -20.535156 7.789062 -19.28125 9.125 -17 C 10.457031 -14.726562 11.726562 -12.609375 12.9375 -10.640625 C 13.070312 -11.066406 13.800781 -12.726562 15.125 -15.625 C 16.445312 -18.53125 17.15625 -20.078125 17.25 -20.265625 C 17.34375 -20.453125 17.5 -20.679688 17.71875 -20.953125 C 18.070312 -21.410156 18.5625 -21.640625 19.1875 -21.640625 C 19.820312 -21.640625 20.570312 -21.453125 21.4375 -21.078125 Z M 21.4375 -21.078125"/></g></g></g><g fill-opacity="1" fill="#ffffff"><g transform="translate(292.034377, 207.012525)"><g><path d="M 13.46875 -21.3125 C 16.164062 -21.3125 18.410156 -20.28125 20.203125 -18.21875 C 21.992188 -16.15625 22.890625 -13.640625 22.890625 -10.671875 L 22.890625 -3.5625 C 22.890625 -2.9375 22.867188 -2.46875 22.828125 -2.15625 C 22.796875 -1.851562 22.679688 -1.507812 22.484375 -1.125 C 22.109375 -0.40625 21.0625 -0.046875 19.34375 -0.046875 C 17.425781 -0.046875 16.316406 -0.539062 16.015625 -1.53125 C 15.859375 -1.988281 15.78125 -2.675781 15.78125 -3.59375 L 15.78125 -10.71875 C 15.78125 -11.820312 15.460938 -12.679688 14.828125 -13.296875 C 14.191406 -13.921875 13.335938 -14.234375 12.265625 -14.234375 C 11.203125 -14.234375 10.34375 -13.910156 9.6875 -13.265625 C 9.03125 -12.617188 8.703125 -11.769531 8.703125 -10.71875 L 8.703125 -3.5625 C 8.703125 -2.9375 8.679688 -2.46875 8.640625 -2.15625 C 8.597656 -1.851562 8.46875 -1.507812 8.25 -1.125 C 7.894531 -0.40625 6.859375 -0.046875 5.140625 -0.046875 C 3.441406 -0.046875 2.398438 -0.40625 2.015625 -1.125 C 1.828125 -1.53125 1.710938 -1.890625 1.671875 -2.203125 C 1.640625 -2.515625 1.625 -2.976562 1.625 -3.59375 L 1.625 -17.921875 C 1.625 -18.515625 1.640625 -18.960938 1.671875 -19.265625 C 1.710938 -19.578125 1.84375 -19.925781 2.0625 -20.3125 C 2.4375 -20.976562 3.472656 -21.3125 5.171875 -21.3125 C 6.816406 -21.3125 7.832031 -21.003906 8.21875 -20.390625 C 8.476562 -19.929688 8.609375 -19.378906 8.609375 -18.734375 C 8.722656 -18.921875 8.96875 -19.1875 9.34375 -19.53125 C 9.71875 -19.882812 10.082031 -20.171875 10.4375 -20.390625 C 11.351562 -21.003906 12.363281 -21.3125 13.46875 -21.3125 Z M 13.46875 -21.3125"/></g></g></g><g fill-opacity="1" fill="#ffffff"><g transform="translate(316.534997, 207.012525)"><g><path d="M 8.296875 -10.65625 C 8.296875 -9.507812 8.671875 -8.617188 9.421875 -7.984375 C 10.179688 -7.347656 10.984375 -7.03125 11.828125 -7.03125 C 12.679688 -7.03125 13.476562 -7.28125 14.21875 -7.78125 C 14.957031 -8.28125 15.554688 -8.53125 16.015625 -8.53125 C 16.828125 -8.53125 17.8125 -7.816406 18.96875 -6.390625 C 19.59375 -5.609375 19.90625 -4.90625 19.90625 -4.28125 C 19.90625 -3.257812 19.160156 -2.304688 17.671875 -1.421875 C 16.140625 -0.335938 14.253906 0.203125 12.015625 0.203125 C 9.503906 0.203125 7.09375 -0.703125 4.78125 -2.515625 C 3.664062 -3.367188 2.757812 -4.515625 2.0625 -5.953125 C 1.363281 -7.398438 1.015625 -8.992188 1.015625 -10.734375 C 1.015625 -12.472656 1.363281 -14.050781 2.0625 -15.46875 C 2.757812 -16.882812 3.664062 -18.023438 4.78125 -18.890625 C 7.007812 -20.671875 9.394531 -21.5625 11.9375 -21.5625 C 12.957031 -21.5625 13.953125 -21.421875 14.921875 -21.140625 C 15.898438 -20.859375 16.617188 -20.582031 17.078125 -20.3125 L 17.71875 -19.90625 C 18.207031 -19.582031 18.582031 -19.328125 18.84375 -19.140625 C 19.550781 -18.597656 19.90625 -17.984375 19.90625 -17.296875 C 19.90625 -16.609375 19.617188 -15.832031 19.046875 -14.96875 C 18.078125 -13.488281 17.148438 -12.75 16.265625 -12.75 C 15.753906 -12.75 15.023438 -13.039062 14.078125 -13.625 C 13.585938 -14.09375 12.890625 -14.328125 11.984375 -14.328125 C 11.085938 -14.328125 10.25 -14 9.46875 -13.34375 C 8.6875 -12.695312 8.296875 -11.800781 8.296875 -10.65625 Z M 8.296875 -10.65625"/></g></g></g><g clip-path="url(#fdd8c04d38)"><g clip-path="url(#a47d106b18)"><path fill-rule="nonzero" fill-opacity="1" d="M 37.5 160.265625 L 100.628906 160.265625 L 100.628906 223.394531 L 37.5 223.394531 Z M 37.5 160.265625" fill="#1cdeb0"/></g></g><g clip-path="url(#30839031be)"><path fill-rule="nonzero" fill-opacity="1" d="M 90.023438 190.566406 C 89.886719 190.433594 89.734375 190.328125 89.5625 190.25 L 89.394531 190.25 C 89.257812 190.203125 89.113281 190.175781 88.964844 190.167969 L 88.78125 190.167969 C 88.636719 190.175781 88.492188 190.203125 88.351562 190.25 L 88.1875 190.25 L 84.875 191.90625 C 84.671875 192 84.496094 192.128906 84.34375 192.296875 C 84.191406 192.460938 84.078125 192.648438 84.003906 192.859375 C 83.929688 193.070312 83.898438 193.289062 83.914062 193.511719 C 83.925781 193.738281 83.984375 193.949219 84.082031 194.148438 C 84.183594 194.351562 84.316406 194.523438 84.488281 194.667969 C 84.660156 194.816406 84.851562 194.921875 85.0625 194.988281 C 85.277344 195.058594 85.496094 195.082031 85.71875 195.0625 C 85.941406 195.039062 86.152344 194.976562 86.347656 194.871094 L 87.027344 194.539062 C 86.875 195.574219 86.632812 196.589844 86.304688 197.582031 C 85.976562 198.574219 85.566406 199.53125 85.074219 200.453125 C 84.582031 201.375 84.011719 202.246094 83.367188 203.070312 C 82.726562 203.894531 82.015625 204.660156 81.242188 205.359375 C 80.46875 206.0625 79.636719 206.695312 78.753906 207.253906 C 77.871094 207.8125 76.945312 208.292969 75.980469 208.691406 C 75.015625 209.09375 74.023438 209.40625 73.003906 209.636719 C 71.980469 209.863281 70.949219 210.003906 69.90625 210.058594 C 68.859375 210.109375 67.820312 210.070312 66.78125 209.941406 C 65.746094 209.8125 64.726562 209.597656 63.726562 209.296875 C 62.726562 208.992188 61.757812 208.605469 60.824219 208.136719 C 59.890625 207.664062 59.003906 207.117188 58.164062 206.496094 C 57.324219 205.875 56.542969 205.183594 55.820312 204.425781 C 55.101562 203.667969 54.449219 202.855469 53.867188 201.988281 C 53.285156 201.117188 52.785156 200.207031 52.359375 199.25 C 51.9375 198.292969 51.597656 197.308594 51.34375 196.296875 C 51.289062 196.082031 51.195312 195.886719 51.0625 195.710938 C 50.929688 195.535156 50.769531 195.394531 50.578125 195.28125 C 50.390625 195.167969 50.1875 195.097656 49.96875 195.066406 C 49.75 195.035156 49.535156 195.046875 49.324219 195.101562 C 49.109375 195.160156 48.914062 195.25 48.738281 195.382812 C 48.5625 195.515625 48.421875 195.675781 48.308594 195.867188 C 48.195312 196.054688 48.125 196.257812 48.09375 196.476562 C 48.0625 196.695312 48.074219 196.910156 48.128906 197.125 C 48.4375 198.304688 48.839844 199.453125 49.339844 200.566406 C 49.839844 201.679688 50.429688 202.742188 51.113281 203.753906 C 51.792969 204.765625 52.554688 205.714844 53.398438 206.597656 C 54.238281 207.480469 55.148438 208.285156 56.128906 209.015625 C 57.109375 209.742188 58.140625 210.382812 59.230469 210.933594 C 60.320312 211.488281 61.445312 211.941406 62.613281 212.304688 C 63.777344 212.664062 64.964844 212.925781 66.175781 213.082031 C 67.386719 213.242188 68.601562 213.296875 69.820312 213.25 C 71.039062 213.199219 72.246094 213.050781 73.441406 212.796875 C 74.632812 212.542969 75.796875 212.191406 76.929688 211.738281 C 78.066406 211.289062 79.152344 210.746094 80.195312 210.109375 C 81.234375 209.472656 82.214844 208.753906 83.136719 207.949219 C 84.054688 207.148438 84.898438 206.273438 85.667969 205.324219 C 86.441406 204.378906 87.125 203.375 87.722656 202.3125 C 88.324219 201.25 88.828125 200.144531 89.238281 198.992188 C 89.652344 197.84375 89.960938 196.667969 90.175781 195.46875 L 91.003906 196.296875 C 91.160156 196.429688 91.339844 196.535156 91.535156 196.601562 C 91.730469 196.671875 91.933594 196.699219 92.144531 196.691406 C 92.351562 196.683594 92.550781 196.640625 92.742188 196.554688 C 92.933594 196.472656 93.101562 196.355469 93.25 196.207031 C 93.398438 196.0625 93.511719 195.890625 93.597656 195.699219 C 93.679688 195.511719 93.726562 195.308594 93.734375 195.101562 C 93.742188 194.894531 93.710938 194.691406 93.644531 194.492188 C 93.574219 194.296875 93.472656 194.121094 93.335938 193.960938 Z M 90.023438 190.566406" fill="#ffffff"/></g><g clip-path="url(#fbb8f8648c)"><path fill-rule="nonzero" fill-opacity="1" d="M 68.976562 173.527344 C 69.980469 173.527344 70.976562 173.609375 71.964844 173.773438 C 72.953125 173.9375 73.921875 174.183594 74.871094 174.507812 C 75.820312 174.832031 76.738281 175.230469 77.621094 175.707031 C 78.5 176.183594 79.339844 176.726562 80.132812 177.34375 C 80.925781 177.957031 81.660156 178.628906 82.34375 179.367188 C 83.023438 180.101562 83.640625 180.890625 84.191406 181.726562 C 84.742188 182.5625 85.222656 183.441406 85.628906 184.355469 C 86.035156 185.273438 86.363281 186.21875 86.613281 187.1875 C 86.667969 187.402344 86.761719 187.59375 86.894531 187.769531 C 87.027344 187.945312 87.1875 188.089844 87.378906 188.203125 C 87.566406 188.3125 87.769531 188.386719 87.988281 188.417969 C 88.207031 188.449219 88.421875 188.433594 88.632812 188.378906 C 88.847656 188.324219 89.042969 188.230469 89.21875 188.101562 C 89.394531 187.96875 89.535156 187.804688 89.648438 187.617188 C 89.761719 187.425781 89.832031 187.222656 89.863281 187.007812 C 89.894531 186.789062 89.882812 186.574219 89.828125 186.359375 C 89.519531 185.179688 89.117188 184.03125 88.617188 182.917969 C 88.117188 181.804688 87.527344 180.742188 86.84375 179.730469 C 86.164062 178.71875 85.402344 177.769531 84.558594 176.886719 C 83.71875 176.003906 82.808594 175.199219 81.828125 174.46875 C 80.847656 173.742188 79.8125 173.101562 78.726562 172.550781 C 77.636719 171.996094 76.511719 171.539062 75.34375 171.179688 C 74.179688 170.820312 72.992188 170.558594 71.78125 170.402344 C 70.570312 170.242188 69.355469 170.1875 68.136719 170.234375 C 66.917969 170.285156 65.710938 170.433594 64.515625 170.6875 C 63.324219 170.941406 62.160156 171.292969 61.027344 171.742188 C 59.890625 172.195312 58.804688 172.738281 57.761719 173.375 C 56.722656 174.011719 55.742188 174.730469 54.820312 175.535156 C 53.902344 176.335938 53.058594 177.210938 52.289062 178.15625 C 51.515625 179.105469 50.832031 180.109375 50.234375 181.171875 C 49.632812 182.234375 49.128906 183.339844 48.71875 184.488281 C 48.304688 185.640625 47.992188 186.8125 47.78125 188.015625 L 46.953125 187.1875 C 46.796875 187.050781 46.617188 186.949219 46.421875 186.882812 C 46.226562 186.8125 46.023438 186.78125 45.8125 186.792969 C 45.605469 186.800781 45.40625 186.84375 45.214844 186.929688 C 45.023438 187.011719 44.855469 187.128906 44.707031 187.273438 C 44.558594 187.421875 44.445312 187.589844 44.359375 187.78125 C 44.277344 187.972656 44.230469 188.171875 44.222656 188.382812 C 44.214844 188.589844 44.246094 188.792969 44.3125 188.988281 C 44.382812 189.1875 44.484375 189.363281 44.621094 189.523438 L 47.933594 192.835938 C 48.242188 193.191406 48.636719 193.378906 49.105469 193.398438 C 49.351562 193.394531 49.582031 193.339844 49.804688 193.230469 L 53.113281 191.578125 C 53.304688 191.472656 53.46875 191.339844 53.605469 191.175781 C 53.742188 191.011719 53.84375 190.824219 53.910156 190.621094 C 53.976562 190.414062 54 190.203125 53.984375 189.992188 C 53.964844 189.777344 53.910156 189.574219 53.816406 189.378906 C 53.71875 189.1875 53.589844 189.019531 53.429688 188.875 C 53.269531 188.734375 53.085938 188.628906 52.882812 188.554688 C 52.679688 188.484375 52.472656 188.453125 52.257812 188.460938 C 52.042969 188.472656 51.835938 188.523438 51.640625 188.613281 L 50.960938 188.941406 C 51.128906 187.878906 51.386719 186.835938 51.738281 185.816406 C 52.089844 184.792969 52.527344 183.8125 53.050781 182.871094 C 53.578125 181.929688 54.179688 181.039062 54.863281 180.207031 C 55.546875 179.371094 56.296875 178.601562 57.117188 177.902344 C 57.9375 177.199219 58.8125 176.578125 59.742188 176.03125 C 60.671875 175.484375 61.644531 175.027344 62.65625 174.652344 C 63.667969 174.277344 64.707031 173.996094 65.765625 173.808594 C 66.828125 173.621094 67.898438 173.527344 68.976562 173.527344 Z M 68.976562 173.527344" fill="#ffffff"/></g></svg>