<svg version="1.0" preserveAspectRatio="xMidYMid meet" viewBox="212.81365748031496 187.392384 603.8672665916761 168.19199999999998" zoomAndPan="magnify" xmlns:xlink="http://www.w3.org/1999/xlink" xmlns="http://www.w3.org/2000/svg" style="max-height: 500px" width="603.8672665916761" height="168.19199999999998"><defs><g/><clipPath id="8d5b9bbbec"><path clip-rule="nonzero" d="M 0 0.140625 L 1024 0.140625 L 1024 575.859375 L 0 575.859375 Z M 0 0.140625"/></clipPath><clipPath id="1343f34e1f"><path clip-rule="nonzero" d="M 229.273438 207.996094 L 346.351562 207.996094 L 346.351562 325.078125 L 229.273438 325.078125 Z M 229.273438 207.996094"/></clipPath><clipPath id="7332b8ef58"><path clip-rule="nonzero" d="M 287.8125 207.996094 C 255.480469 207.996094 229.273438 234.207031 229.273438 266.539062 C 229.273438 298.867188 255.480469 325.078125 287.8125 325.078125 C 320.140625 325.078125 346.351562 298.867188 346.351562 266.539062 C 346.351562 234.207031 320.140625 207.996094 287.8125 207.996094 Z M 287.8125 207.996094"/></clipPath><clipPath id="a4f8afc556"><path clip-rule="nonzero" d="M 241.585938 226 L 327 226 L 327 270 L 241.585938 270 Z M 241.585938 226"/></clipPath></defs><g clip-path="url(#8d5b9bbbec)"><path fill-rule="nonzero" fill-opacity="1" d="M 0 0.140625 L 1024 0.140625 L 1024 575.859375 L 0 575.859375 Z M 0 0.140625" fill="#ffffff"/><path fill-rule="nonzero" fill-opacity="1" d="M 0 0.140625 L 1024 0.140625 L 1024 575.859375 L 0 575.859375 Z M 0 0.140625" fill="#003634"/></g><g fill-opacity="1" fill="#ffffff"><g transform="translate(366.240441, 294.698311)"><g><path d="M 6.59375 -55.0625 L 48.3125 -55.0625 C 49.90625 -55.0625 51.078125 -54.875 51.828125 -54.5 C 52.585938 -54.125 53.09375 -53.535156 53.34375 -52.734375 C 53.59375 -51.929688 53.71875 -50.878906 53.71875 -49.578125 C 53.71875 -48.285156 53.59375 -47.25 53.34375 -46.46875 C 53.09375 -45.695312 52.664062 -45.160156 52.0625 -44.859375 C 51.15625 -44.410156 49.878906 -44.1875 48.234375 -44.1875 L 33.90625 -44.1875 L 33.90625 -6.453125 C 33.90625 -5.296875 33.867188 -4.441406 33.796875 -3.890625 C 33.722656 -3.347656 33.5 -2.710938 33.125 -1.984375 C 32.75 -1.265625 32.082031 -0.753906 31.125 -0.453125 C 30.175781 -0.148438 28.925781 0 27.375 0 C 25.832031 0 24.597656 -0.148438 23.671875 -0.453125 C 22.742188 -0.753906 22.09375 -1.265625 21.71875 -1.984375 C 21.34375 -2.710938 21.113281 -3.363281 21.03125 -3.9375 C 20.957031 -4.507812 20.921875 -5.375 20.921875 -6.53125 L 20.921875 -44.1875 L 6.53125 -44.1875 C 4.925781 -44.1875 3.75 -44.375 3 -44.75 C 2.25 -45.125 1.75 -45.707031 1.5 -46.5 C 1.25 -47.300781 1.125 -48.351562 1.125 -49.65625 C 1.125 -50.957031 1.25 -51.992188 1.5 -52.765625 C 1.75 -53.546875 2.175781 -54.085938 2.78125 -54.390625 C 3.675781 -54.835938 4.945312 -55.0625 6.59375 -55.0625 Z M 6.59375 -55.0625"/></g></g></g><g fill-opacity="1" fill="#ffffff"><g transform="translate(421.052791, 294.698311)"><g><path d="M 28.65625 -35.328125 C 28.957031 -38.128906 30.929688 -39.53125 34.578125 -39.53125 C 36.523438 -39.53125 37.972656 -39.378906 38.921875 -39.078125 C 39.878906 -38.785156 40.546875 -38.257812 40.921875 -37.5 C 41.296875 -36.75 41.519531 -36.085938 41.59375 -35.515625 C 41.664062 -34.941406 41.703125 -34.082031 41.703125 -32.9375 L 41.703125 -6.671875 C 41.703125 -5.523438 41.664062 -4.660156 41.59375 -4.078125 C 41.519531 -3.503906 41.304688 -2.84375 40.953125 -2.09375 C 40.253906 -0.800781 38.539062 -0.15625 35.8125 -0.15625 C 33.09375 -0.15625 31.269531 -0.488281 30.34375 -1.15625 C 29.414062 -1.832031 28.878906 -2.820312 28.734375 -4.125 C 26.878906 -1.476562 23.789062 -0.15625 19.46875 -0.15625 C 15.144531 -0.15625 11.128906 -2.128906 7.421875 -6.078125 C 3.722656 -10.023438 1.875 -14.613281 1.875 -19.84375 C 1.875 -25.070312 3.734375 -29.644531 7.453125 -33.5625 C 11.179688 -37.488281 15.273438 -39.453125 19.734375 -39.453125 C 21.429688 -39.453125 22.976562 -39.148438 24.375 -38.546875 C 25.78125 -37.953125 26.753906 -37.390625 27.296875 -36.859375 C 27.847656 -36.335938 28.300781 -35.828125 28.65625 -35.328125 Z M 15 -19.71875 C 15 -18.070312 15.648438 -16.585938 16.953125 -15.265625 C 18.253906 -13.941406 19.828125 -13.28125 21.671875 -13.28125 C 23.523438 -13.28125 25.0625 -13.953125 26.28125 -15.296875 C 27.507812 -16.648438 28.125 -18.140625 28.125 -19.765625 C 28.125 -21.390625 27.535156 -22.898438 26.359375 -24.296875 C 25.191406 -25.703125 23.617188 -26.40625 21.640625 -26.40625 C 19.660156 -26.40625 18.054688 -25.703125 16.828125 -24.296875 C 15.609375 -22.898438 15 -21.375 15 -19.71875 Z M 15 -19.71875"/></g></g></g><g fill-opacity="1" fill="#ffffff"><g transform="translate(465.742479, 294.698311)"><g><path d="M 3 -51.53125 C 3 -52.6875 3.035156 -53.550781 3.109375 -54.125 C 3.179688 -54.695312 3.394531 -55.359375 3.75 -56.109375 C 4.445312 -57.460938 6.398438 -58.140625 9.609375 -58.140625 C 12.648438 -58.140625 14.546875 -57.460938 15.296875 -56.109375 C 15.703125 -55.359375 15.941406 -54.679688 16.015625 -54.078125 C 16.085938 -53.484375 16.125 -52.609375 16.125 -51.453125 L 16.125 -16.734375 C 16.125 -14.929688 16.273438 -13.789062 16.578125 -13.3125 C 16.878906 -12.84375 17.539062 -12.609375 18.5625 -12.609375 C 19.59375 -12.609375 20.28125 -12.566406 20.625 -12.484375 C 20.976562 -12.410156 21.40625 -12.203125 21.90625 -11.859375 C 22.90625 -11.203125 23.40625 -9.425781 23.40625 -6.53125 C 23.40625 -3.375 22.90625 -1.445312 21.90625 -0.75 C 20.601562 0.144531 17.503906 0.296875 12.609375 -0.296875 C 8.753906 -0.796875 6.25 -2.070312 5.09375 -4.125 C 3.695312 -6.570312 3 -10.472656 3 -15.828125 Z M 3 -51.53125"/></g></g></g><g fill-opacity="1" fill="#ffffff"><g transform="translate(490.26182, 294.698311)"><g><path d="M 41.109375 -24.484375 C 41.109375 -21.410156 40.34375 -19.132812 38.8125 -17.65625 C 37.289062 -16.1875 35.601562 -15.453125 33.75 -15.453125 L 15.984375 -15.453125 C 15.984375 -14.054688 16.804688 -12.878906 18.453125 -11.921875 C 20.097656 -10.972656 21.75 -10.5 23.40625 -10.5 C 26.300781 -10.5 28.578125 -10.800781 30.234375 -11.40625 L 31.0625 -11.703125 C 32.257812 -12.253906 33.257812 -12.53125 34.0625 -12.53125 C 35.65625 -12.53125 37.03125 -11.40625 38.1875 -9.15625 C 38.832031 -7.800781 39.15625 -6.648438 39.15625 -5.703125 C 39.15625 -1.253906 33.832031 0.96875 23.1875 0.96875 C 19.476562 0.96875 16.1875 0.332031 13.3125 -0.9375 C 10.4375 -2.207031 8.195312 -3.894531 6.59375 -6 C 3.445312 -10.050781 1.875 -14.578125 1.875 -19.578125 C 1.875 -25.878906 3.910156 -30.914062 7.984375 -34.6875 C 12.066406 -38.46875 17.15625 -40.359375 23.25 -40.359375 C 30.207031 -40.359375 35.3125 -37.90625 38.5625 -33 C 40.257812 -30.40625 41.109375 -27.566406 41.109375 -24.484375 Z M 25.28125 -22.28125 C 27.175781 -22.28125 28.125 -23.082031 28.125 -24.6875 C 28.125 -25.832031 27.6875 -26.753906 26.8125 -27.453125 C 25.9375 -28.148438 24.6875 -28.5 23.0625 -28.5 C 21.4375 -28.5 19.820312 -27.835938 18.21875 -26.515625 C 16.625 -25.191406 15.828125 -23.78125 15.828125 -22.28125 Z M 25.28125 -22.28125"/></g></g></g><g fill-opacity="1" fill="#ffffff"><g transform="translate(533.226925, 294.698311)"><g><path d="M 24.984375 -39.53125 C 29.984375 -39.53125 34.144531 -37.617188 37.46875 -33.796875 C 40.789062 -29.972656 42.453125 -25.304688 42.453125 -19.796875 L 42.453125 -6.59375 C 42.453125 -5.445312 42.414062 -4.585938 42.34375 -4.015625 C 42.269531 -3.441406 42.054688 -2.800781 41.703125 -2.09375 C 41.003906 -0.75 39.054688 -0.078125 35.859375 -0.078125 C 32.304688 -0.078125 30.253906 -1 29.703125 -2.84375 C 29.398438 -3.695312 29.25 -4.972656 29.25 -6.671875 L 29.25 -19.875 C 29.25 -21.925781 28.660156 -23.523438 27.484375 -24.671875 C 26.316406 -25.828125 24.742188 -26.40625 22.765625 -26.40625 C 20.785156 -26.40625 19.179688 -25.804688 17.953125 -24.609375 C 16.734375 -23.410156 16.125 -21.832031 16.125 -19.875 L 16.125 -6.59375 C 16.125 -5.445312 16.085938 -4.585938 16.015625 -4.015625 C 15.941406 -3.441406 15.703125 -2.800781 15.296875 -2.09375 C 14.648438 -0.75 12.726562 -0.078125 9.53125 -0.078125 C 6.375 -0.078125 4.445312 -0.75 3.75 -2.09375 C 3.394531 -2.84375 3.179688 -3.503906 3.109375 -4.078125 C 3.035156 -4.660156 3 -5.523438 3 -6.671875 L 3 -33.234375 C 3 -34.328125 3.035156 -35.160156 3.109375 -35.734375 C 3.179688 -36.316406 3.421875 -36.957031 3.828125 -37.65625 C 4.523438 -38.90625 6.453125 -39.53125 9.609375 -39.53125 C 12.648438 -39.53125 14.523438 -38.957031 15.234375 -37.8125 C 15.734375 -36.957031 15.984375 -35.929688 15.984375 -34.734375 C 16.179688 -35.078125 16.628906 -35.570312 17.328125 -36.21875 C 18.023438 -36.875 18.703125 -37.40625 19.359375 -37.8125 C 21.054688 -38.957031 22.929688 -39.53125 24.984375 -39.53125 Z M 24.984375 -39.53125"/></g></g></g><g fill-opacity="1" fill="#ffffff"><g transform="translate(578.666455, 294.698311)"><g><path d="M 25.953125 -26.25 L 21.078125 -26.5625 L 21.078125 -16.203125 C 21.078125 -14.847656 21.289062 -13.867188 21.71875 -13.265625 C 22.144531 -12.671875 22.941406 -12.375 24.109375 -12.375 C 25.285156 -12.375 26.1875 -12.335938 26.8125 -12.265625 C 27.4375 -12.191406 28.101562 -11.953125 28.8125 -11.546875 C 29.957031 -10.898438 30.53125 -9.226562 30.53125 -6.53125 C 30.53125 -3.375 29.832031 -1.445312 28.4375 -0.75 C 27.6875 -0.394531 27.019531 -0.179688 26.4375 -0.109375 C 25.863281 -0.0351562 25.03125 0 23.9375 0 C 18.726562 0 14.773438 -1.171875 12.078125 -3.515625 C 9.378906 -5.867188 8.03125 -9.847656 8.03125 -15.453125 L 8.03125 -26.5625 C 7.070312 -26.40625 6.039062 -26.328125 4.9375 -26.328125 C 3.84375 -26.328125 2.929688 -26.75 2.203125 -27.59375 C 1.484375 -28.445312 1.125 -29.898438 1.125 -31.953125 C 1.125 -34.003906 1.25 -35.492188 1.5 -36.421875 C 1.75 -37.347656 2.097656 -38.007812 2.546875 -38.40625 C 3.347656 -39.0625 4.347656 -39.390625 5.546875 -39.390625 L 8.03125 -39.078125 L 8.03125 -46.8125 C 8.03125 -47.957031 8.066406 -48.804688 8.140625 -49.359375 C 8.210938 -49.910156 8.453125 -50.507812 8.859375 -51.15625 C 9.503906 -52.40625 11.425781 -53.03125 14.625 -53.03125 C 18.03125 -53.03125 20.054688 -52.109375 20.703125 -50.265625 C 20.953125 -49.460938 21.078125 -48.1875 21.078125 -46.4375 L 21.078125 -39.078125 C 23.273438 -39.285156 24.9375 -39.390625 26.0625 -39.390625 C 27.1875 -39.390625 28.035156 -39.347656 28.609375 -39.265625 C 29.191406 -39.191406 29.859375 -38.957031 30.609375 -38.5625 C 31.910156 -37.90625 32.5625 -35.976562 32.5625 -32.78125 C 32.5625 -29.632812 31.882812 -27.707031 30.53125 -27 C 29.78125 -26.65625 29.117188 -26.441406 28.546875 -26.359375 C 27.972656 -26.285156 27.109375 -26.25 25.953125 -26.25 Z M 25.953125 -26.25"/></g></g></g><g fill-opacity="1" fill="#ffffff"><g transform="translate(612.333684, 294.698311)"><g><path d="M 3.828125 -7.734375 C 2.523438 -9.328125 1.875 -10.757812 1.875 -12.03125 C 1.875 -13.3125 2.945312 -15.003906 5.09375 -17.109375 C 6.34375 -18.304688 7.664062 -18.90625 9.0625 -18.90625 C 10.46875 -18.90625 12.421875 -17.65625 14.921875 -15.15625 C 15.628906 -14.300781 16.628906 -13.484375 17.921875 -12.703125 C 19.222656 -11.929688 20.425781 -11.546875 21.53125 -11.546875 C 26.175781 -11.546875 28.5 -13.445312 28.5 -17.25 C 28.5 -18.40625 27.863281 -19.367188 26.59375 -20.140625 C 25.320312 -20.910156 23.734375 -21.472656 21.828125 -21.828125 C 19.929688 -22.179688 17.878906 -22.742188 15.671875 -23.515625 C 13.472656 -24.296875 11.421875 -25.207031 9.515625 -26.25 C 7.617188 -27.300781 6.03125 -28.960938 4.75 -31.234375 C 3.476562 -33.515625 2.84375 -36.253906 2.84375 -39.453125 C 2.84375 -43.859375 4.476562 -47.695312 7.75 -50.96875 C 11.03125 -54.25 15.5 -55.890625 21.15625 -55.890625 C 24.15625 -55.890625 26.890625 -55.5 29.359375 -54.71875 C 31.835938 -53.945312 33.550781 -53.160156 34.5 -52.359375 L 36.375 -50.9375 C 37.925781 -49.488281 38.703125 -48.265625 38.703125 -47.265625 C 38.703125 -46.265625 38.101562 -44.890625 36.90625 -43.140625 C 35.207031 -40.640625 33.457031 -39.390625 31.65625 -39.390625 C 30.601562 -39.390625 29.300781 -39.890625 27.75 -40.890625 C 27.601562 -40.984375 27.316406 -41.226562 26.890625 -41.625 C 26.460938 -42.03125 26.078125 -42.359375 25.734375 -42.609375 C 24.679688 -43.253906 23.34375 -43.578125 21.71875 -43.578125 C 20.09375 -43.578125 18.738281 -43.191406 17.65625 -42.421875 C 16.582031 -41.648438 16.046875 -40.570312 16.046875 -39.1875 C 16.046875 -37.8125 16.679688 -36.695312 17.953125 -35.84375 C 19.234375 -35 20.820312 -34.425781 22.71875 -34.125 C 24.625 -33.832031 26.703125 -33.375 28.953125 -32.75 C 31.203125 -32.125 33.273438 -31.359375 35.171875 -30.453125 C 37.078125 -29.554688 38.664062 -27.992188 39.9375 -25.765625 C 41.21875 -23.535156 41.859375 -20.796875 41.859375 -17.546875 C 41.859375 -14.296875 41.207031 -11.429688 39.90625 -8.953125 C 38.601562 -6.484375 36.90625 -4.570312 34.8125 -3.21875 C 30.757812 -0.570312 26.429688 0.75 21.828125 0.75 C 19.472656 0.75 17.242188 0.460938 15.140625 -0.109375 C 13.046875 -0.679688 11.347656 -1.394531 10.046875 -2.25 C 7.398438 -3.851562 5.550781 -5.40625 4.5 -6.90625 Z M 3.828125 -7.734375"/></g></g></g><g fill-opacity="1" fill="#ffffff"><g transform="translate(656.048597, 294.698311)"><g><path d="M 39.765625 -39.078125 C 42.710938 -37.773438 44.1875 -36.203125 44.1875 -34.359375 C 44.1875 -33.453125 43.984375 -32.597656 43.578125 -31.796875 C 43.179688 -31.003906 42.984375 -30.582031 42.984375 -30.53125 L 23.328125 13.421875 C 22.929688 14.378906 22.59375 15.109375 22.3125 15.609375 C 22.039062 16.109375 21.601562 16.582031 21 17.03125 C 20.40625 17.476562 19.65625 17.703125 18.75 17.703125 C 17.851562 17.703125 16.53125 17.328125 14.78125 16.578125 C 11.832031 15.273438 10.359375 13.722656 10.359375 11.921875 C 10.359375 10.722656 12.753906 5 17.546875 -5.25 L 2.625 -30.375 C 1.625 -32.03125 1.125 -33.257812 1.125 -34.0625 C 1.125 -35.65625 2.472656 -37.253906 5.171875 -38.859375 C 6.878906 -39.859375 8.207031 -40.359375 9.15625 -40.359375 C 10.101562 -40.359375 10.875 -40.15625 11.46875 -39.75 C 12.070312 -39.351562 12.507812 -38.941406 12.78125 -38.515625 C 13.0625 -38.097656 14.4375 -35.773438 16.90625 -31.546875 C 19.382812 -27.316406 21.75 -23.378906 24 -19.734375 C 24.25 -20.523438 25.597656 -23.609375 28.046875 -28.984375 C 30.503906 -34.367188 31.816406 -37.234375 31.984375 -37.578125 C 32.160156 -37.929688 32.453125 -38.359375 32.859375 -38.859375 C 33.503906 -39.710938 34.414062 -40.140625 35.59375 -40.140625 C 36.769531 -40.140625 38.160156 -39.785156 39.765625 -39.078125 Z M 39.765625 -39.078125"/></g></g></g><g fill-opacity="1" fill="#ffffff"><g transform="translate(701.338137, 294.698311)"><g><path d="M 24.984375 -39.53125 C 29.984375 -39.53125 34.144531 -37.617188 37.46875 -33.796875 C 40.789062 -29.972656 42.453125 -25.304688 42.453125 -19.796875 L 42.453125 -6.59375 C 42.453125 -5.445312 42.414062 -4.585938 42.34375 -4.015625 C 42.269531 -3.441406 42.054688 -2.800781 41.703125 -2.09375 C 41.003906 -0.75 39.054688 -0.078125 35.859375 -0.078125 C 32.304688 -0.078125 30.253906 -1 29.703125 -2.84375 C 29.398438 -3.695312 29.25 -4.972656 29.25 -6.671875 L 29.25 -19.875 C 29.25 -21.925781 28.660156 -23.523438 27.484375 -24.671875 C 26.316406 -25.828125 24.742188 -26.40625 22.765625 -26.40625 C 20.785156 -26.40625 19.179688 -25.804688 17.953125 -24.609375 C 16.734375 -23.410156 16.125 -21.832031 16.125 -19.875 L 16.125 -6.59375 C 16.125 -5.445312 16.085938 -4.585938 16.015625 -4.015625 C 15.941406 -3.441406 15.703125 -2.800781 15.296875 -2.09375 C 14.648438 -0.75 12.726562 -0.078125 9.53125 -0.078125 C 6.375 -0.078125 4.445312 -0.75 3.75 -2.09375 C 3.394531 -2.84375 3.179688 -3.503906 3.109375 -4.078125 C 3.035156 -4.660156 3 -5.523438 3 -6.671875 L 3 -33.234375 C 3 -34.328125 3.035156 -35.160156 3.109375 -35.734375 C 3.179688 -36.316406 3.421875 -36.957031 3.828125 -37.65625 C 4.523438 -38.90625 6.453125 -39.53125 9.609375 -39.53125 C 12.648438 -39.53125 14.523438 -38.957031 15.234375 -37.8125 C 15.734375 -36.957031 15.984375 -35.929688 15.984375 -34.734375 C 16.179688 -35.078125 16.628906 -35.570312 17.328125 -36.21875 C 18.023438 -36.875 18.703125 -37.40625 19.359375 -37.8125 C 21.054688 -38.957031 22.929688 -39.53125 24.984375 -39.53125 Z M 24.984375 -39.53125"/></g></g></g><g fill-opacity="1" fill="#ffffff"><g transform="translate(746.777666, 294.698311)"><g><path d="M 15.375 -19.765625 C 15.375 -17.640625 16.070312 -15.988281 17.46875 -14.8125 C 18.875 -13.632812 20.363281 -13.046875 21.9375 -13.046875 C 23.519531 -13.046875 25 -13.507812 26.375 -14.4375 C 27.75 -15.363281 28.859375 -15.828125 29.703125 -15.828125 C 31.203125 -15.828125 33.03125 -14.503906 35.1875 -11.859375 C 36.332031 -10.398438 36.90625 -9.097656 36.90625 -7.953125 C 36.90625 -6.046875 35.53125 -4.269531 32.78125 -2.625 C 29.925781 -0.625 26.425781 0.375 22.28125 0.375 C 17.625 0.375 13.148438 -1.300781 8.859375 -4.65625 C 6.804688 -6.25 5.128906 -8.382812 3.828125 -11.0625 C 2.523438 -13.738281 1.875 -16.6875 1.875 -19.90625 C 1.875 -23.132812 2.523438 -26.0625 3.828125 -28.6875 C 5.128906 -31.3125 6.804688 -33.425781 8.859375 -35.03125 C 13.003906 -38.332031 17.425781 -39.984375 22.125 -39.984375 C 24.03125 -39.984375 25.878906 -39.71875 27.671875 -39.1875 C 29.472656 -38.664062 30.800781 -38.15625 31.65625 -37.65625 L 32.859375 -36.90625 C 33.753906 -36.300781 34.453125 -35.828125 34.953125 -35.484375 C 36.253906 -34.484375 36.90625 -33.34375 36.90625 -32.0625 C 36.90625 -30.789062 36.378906 -29.351562 35.328125 -27.75 C 33.523438 -25 31.800781 -23.625 30.15625 -23.625 C 29.207031 -23.625 27.859375 -24.175781 26.109375 -25.28125 C 25.203125 -26.132812 23.910156 -26.5625 22.234375 -26.5625 C 20.566406 -26.5625 19.003906 -25.957031 17.546875 -24.75 C 16.097656 -23.550781 15.375 -21.890625 15.375 -19.765625 Z M 15.375 -19.765625"/></g></g></g><g clip-path="url(#1343f34e1f)"><g clip-path="url(#7332b8ef58)"><path fill-rule="nonzero" fill-opacity="1" d="M 229.273438 207.996094 L 346.351562 207.996094 L 346.351562 325.078125 L 229.273438 325.078125 Z M 229.273438 207.996094" fill="#1cdeb0"/></g></g><path fill-rule="nonzero" fill-opacity="1" d="M 326.6875 264.195312 C 326.433594 263.953125 326.144531 263.757812 325.828125 263.613281 L 325.519531 263.613281 C 325.261719 263.527344 324.992188 263.476562 324.71875 263.460938 L 324.382812 263.460938 C 324.109375 263.476562 323.84375 263.527344 323.585938 263.613281 L 323.277344 263.613281 L 317.136719 266.683594 C 316.757812 266.855469 316.429688 267.097656 316.148438 267.40625 C 315.867188 267.710938 315.660156 268.058594 315.519531 268.453125 C 315.382812 268.84375 315.324219 269.246094 315.351562 269.660156 C 315.375 270.078125 315.480469 270.46875 315.667969 270.84375 C 315.851562 271.214844 316.101562 271.535156 316.417969 271.804688 C 316.734375 272.078125 317.089844 272.273438 317.484375 272.402344 C 317.878906 272.527344 318.285156 272.570312 318.699219 272.53125 C 319.113281 272.496094 319.503906 272.378906 319.867188 272.179688 L 321.128906 271.566406 C 320.984375 272.523438 320.800781 273.472656 320.578125 274.414062 C 320.355469 275.355469 320.089844 276.285156 319.789062 277.207031 C 319.484375 278.125 319.140625 279.027344 318.757812 279.917969 C 318.378906 280.808594 317.960938 281.679688 317.503906 282.53125 C 317.046875 283.386719 316.554688 284.21875 316.027344 285.027344 C 315.5 285.839844 314.9375 286.625 314.339844 287.390625 C 313.746094 288.152344 313.117188 288.886719 312.460938 289.597656 C 311.800781 290.304688 311.113281 290.984375 310.398438 291.636719 C 309.679688 292.285156 308.9375 292.902344 308.164062 293.488281 C 307.394531 294.074219 306.601562 294.625 305.785156 295.144531 C 304.964844 295.664062 304.128906 296.144531 303.269531 296.589844 C 302.410156 297.035156 301.535156 297.441406 300.640625 297.8125 C 299.746094 298.183594 298.835938 298.515625 297.914062 298.808594 C 296.992188 299.097656 296.058594 299.351562 295.113281 299.5625 C 294.171875 299.777344 293.21875 299.945312 292.261719 300.078125 C 291.300781 300.207031 290.339844 300.296875 289.371094 300.34375 C 288.40625 300.390625 287.4375 300.398438 286.472656 300.363281 C 285.503906 300.328125 284.539062 300.25 283.578125 300.132812 C 282.621094 300.011719 281.664062 299.851562 280.71875 299.652344 C 279.773438 299.453125 278.835938 299.210938 277.910156 298.929688 C 276.984375 298.652344 276.070312 298.332031 275.171875 297.972656 C 274.273438 297.613281 273.394531 297.214844 272.527344 296.78125 C 271.664062 296.34375 270.820312 295.875 269.996094 295.367188 C 269.171875 294.859375 268.371094 294.316406 267.59375 293.742188 C 266.816406 293.164062 266.066406 292.554688 265.339844 291.914062 C 264.613281 291.273438 263.917969 290.601562 263.25 289.902344 C 262.582031 289.203125 261.949219 288.472656 261.34375 287.71875 C 260.738281 286.964844 260.167969 286.183594 259.628906 285.378906 C 259.089844 284.574219 258.589844 283.75 258.121094 282.902344 C 257.65625 282.054688 257.226562 281.1875 256.832031 280.300781 C 256.441406 279.417969 256.085938 278.519531 255.769531 277.601562 C 255.457031 276.6875 255.179688 275.761719 254.945312 274.824219 C 254.84375 274.425781 254.667969 274.066406 254.425781 273.742188 C 254.179688 273.414062 253.882812 273.148438 253.53125 272.941406 C 253.179688 272.734375 252.800781 272.601562 252.398438 272.542969 C 251.992188 272.488281 251.59375 272.507812 251.199219 272.609375 C 250.804688 272.714844 250.441406 272.886719 250.117188 273.132812 C 249.789062 273.378906 249.523438 273.675781 249.316406 274.027344 C 249.109375 274.378906 248.976562 274.753906 248.921875 275.160156 C 248.863281 275.5625 248.886719 275.964844 248.988281 276.359375 C 249.269531 277.453125 249.597656 278.53125 249.972656 279.597656 C 250.347656 280.664062 250.765625 281.710938 251.230469 282.742188 C 251.691406 283.773438 252.199219 284.78125 252.746094 285.769531 C 253.296875 286.753906 253.886719 287.71875 254.515625 288.65625 C 255.144531 289.59375 255.816406 290.5 256.523438 291.382812 C 257.230469 292.261719 257.972656 293.109375 258.753906 293.929688 C 259.535156 294.746094 260.347656 295.527344 261.191406 296.277344 C 262.039062 297.023438 262.914062 297.734375 263.820312 298.410156 C 264.730469 299.085938 265.664062 299.71875 266.621094 300.3125 C 267.582031 300.90625 268.566406 301.460938 269.574219 301.972656 C 270.582031 302.484375 271.609375 302.949219 272.65625 303.375 C 273.703125 303.796875 274.765625 304.175781 275.84375 304.511719 C 276.925781 304.84375 278.015625 305.132812 279.121094 305.375 C 280.222656 305.613281 281.335938 305.808594 282.453125 305.957031 C 283.574219 306.101562 284.699219 306.203125 285.828125 306.253906 C 286.957031 306.304688 288.085938 306.308594 289.214844 306.261719 C 290.34375 306.21875 291.464844 306.125 292.585938 305.988281 C 293.707031 305.847656 294.820312 305.660156 295.925781 305.425781 C 297.03125 305.191406 298.125 304.910156 299.207031 304.582031 C 300.289062 304.253906 301.351562 303.882812 302.402344 303.464844 C 303.453125 303.046875 304.480469 302.585938 305.492188 302.082031 C 306.503906 301.578125 307.488281 301.03125 308.453125 300.441406 C 309.417969 299.851562 310.355469 299.222656 311.265625 298.554688 C 312.175781 297.886719 313.058594 297.179688 313.90625 296.4375 C 314.757812 295.695312 315.578125 294.917969 316.359375 294.105469 C 317.144531 293.292969 317.894531 292.445312 318.609375 291.570312 C 319.320312 290.695312 319.996094 289.789062 320.632812 288.855469 C 321.269531 287.921875 321.863281 286.964844 322.417969 285.980469 C 322.972656 284.996094 323.484375 283.992188 323.953125 282.964844 C 324.425781 281.9375 324.847656 280.890625 325.230469 279.828125 C 325.609375 278.761719 325.945312 277.683594 326.234375 276.59375 C 326.523438 275.5 326.765625 274.398438 326.960938 273.285156 L 328.5 274.824219 C 328.792969 275.074219 329.121094 275.261719 329.488281 275.390625 C 329.851562 275.515625 330.226562 275.574219 330.613281 275.558594 C 331 275.542969 331.371094 275.457031 331.726562 275.304688 C 332.078125 275.148438 332.394531 274.933594 332.667969 274.660156 C 332.941406 274.386719 333.15625 274.074219 333.308594 273.71875 C 333.464844 273.363281 333.550781 272.996094 333.566406 272.609375 C 333.578125 272.222656 333.523438 271.847656 333.394531 271.480469 C 333.269531 271.117188 333.078125 270.785156 332.828125 270.492188 Z M 326.6875 264.195312" fill="#ffffff"/><g clip-path="url(#a4f8afc556)"><path fill-rule="nonzero" fill-opacity="1" d="M 287.652344 232.59375 C 289.511719 232.59375 291.359375 232.746094 293.191406 233.050781 C 295.027344 233.359375 296.824219 233.8125 298.582031 234.414062 C 300.34375 235.015625 302.042969 235.757812 303.679688 236.640625 C 305.316406 237.519531 306.867188 238.53125 308.339844 239.671875 C 309.808594 240.808594 311.175781 242.0625 312.4375 243.425781 C 313.703125 244.789062 314.84375 246.25 315.867188 247.800781 C 316.890625 249.355469 317.777344 250.980469 318.53125 252.679688 C 319.285156 254.378906 319.894531 256.128906 320.359375 257.929688 C 320.460938 258.328125 320.636719 258.6875 320.878906 259.011719 C 321.125 259.339844 321.421875 259.605469 321.773438 259.8125 C 322.125 260.019531 322.503906 260.152344 322.90625 260.210938 C 323.3125 260.265625 323.710938 260.246094 324.105469 260.140625 C 324.5 260.039062 324.863281 259.867188 325.1875 259.621094 C 325.515625 259.375 325.78125 259.078125 325.988281 258.726562 C 326.195312 258.375 326.328125 258 326.382812 257.59375 C 326.441406 257.191406 326.417969 256.789062 326.316406 256.394531 C 326.035156 255.300781 325.707031 254.222656 325.332031 253.15625 C 324.957031 252.089844 324.539062 251.042969 324.074219 250.011719 C 323.613281 248.980469 323.105469 247.972656 322.558594 246.984375 C 322.007812 246 321.417969 245.035156 320.789062 244.097656 C 320.160156 243.160156 319.488281 242.253906 318.78125 241.371094 C 318.074219 240.492188 317.332031 239.644531 316.550781 238.824219 C 315.769531 238.007812 314.957031 237.226562 314.113281 236.476562 C 313.265625 235.730469 312.390625 235.019531 311.484375 234.34375 C 310.574219 233.667969 309.640625 233.035156 308.683594 232.441406 C 307.722656 231.847656 306.738281 231.292969 305.730469 230.78125 C 304.722656 230.269531 303.695312 229.804688 302.648438 229.378906 C 301.601562 228.953125 300.539062 228.574219 299.460938 228.242188 C 298.378906 227.910156 297.289062 227.621094 296.1875 227.378906 C 295.082031 227.136719 293.96875 226.945312 292.851562 226.796875 C 291.730469 226.652344 290.605469 226.550781 289.476562 226.5 C 288.347656 226.449219 287.21875 226.445312 286.089844 226.492188 C 284.960938 226.535156 283.839844 226.628906 282.71875 226.765625 C 281.597656 226.90625 280.484375 227.09375 279.378906 227.328125 C 278.273438 227.5625 277.179688 227.84375 276.097656 228.171875 C 275.019531 228.5 273.953125 228.871094 272.902344 229.289062 C 271.851562 229.707031 270.824219 230.167969 269.8125 230.671875 C 268.800781 231.175781 267.816406 231.722656 266.851562 232.3125 C 265.886719 232.902344 264.949219 233.53125 264.039062 234.199219 C 263.128906 234.867188 262.246094 235.574219 261.398438 236.316406 C 260.546875 237.058594 259.726562 237.835938 258.945312 238.648438 C 258.160156 239.460938 257.410156 240.308594 256.695312 241.183594 C 255.984375 242.058594 255.308594 242.964844 254.671875 243.898438 C 254.035156 244.832031 253.441406 245.789062 252.886719 246.773438 C 252.332031 247.757812 251.820312 248.761719 251.351562 249.789062 C 250.878906 250.816406 250.457031 251.863281 250.074219 252.925781 C 249.695312 253.992188 249.359375 255.066406 249.070312 256.160156 C 248.78125 257.253906 248.539062 258.355469 248.34375 259.46875 L 246.804688 257.929688 C 246.511719 257.679688 246.183594 257.492188 245.816406 257.363281 C 245.453125 257.234375 245.078125 257.179688 244.691406 257.195312 C 244.304688 257.210938 243.933594 257.292969 243.578125 257.449219 C 243.226562 257.605469 242.910156 257.820312 242.636719 258.09375 C 242.363281 258.367188 242.148438 258.679688 241.996094 259.035156 C 241.839844 259.386719 241.753906 259.757812 241.738281 260.144531 C 241.726562 260.53125 241.78125 260.90625 241.910156 261.273438 C 242.035156 261.636719 242.226562 261.96875 242.476562 262.261719 L 248.617188 268.402344 C 249.195312 269.0625 249.921875 269.410156 250.800781 269.449219 C 251.25 269.441406 251.679688 269.339844 252.089844 269.140625 L 258.230469 266.070312 C 258.582031 265.882812 258.886719 265.632812 259.140625 265.328125 C 259.394531 265.019531 259.585938 264.675781 259.707031 264.296875 C 259.828125 263.914062 259.871094 263.527344 259.84375 263.128906 C 259.8125 262.730469 259.707031 262.351562 259.53125 261.996094 C 259.351562 261.636719 259.113281 261.328125 258.816406 261.0625 C 258.515625 260.796875 258.179688 260.601562 257.800781 260.46875 C 257.425781 260.335938 257.039062 260.277344 256.640625 260.296875 C 256.242188 260.3125 255.859375 260.40625 255.496094 260.574219 L 254.238281 261.1875 C 254.390625 260.199219 254.589844 259.222656 254.828125 258.253906 C 255.070312 257.285156 255.351562 256.328125 255.675781 255.382812 C 256 254.441406 256.367188 253.511719 256.773438 252.601562 C 257.179688 251.6875 257.628906 250.796875 258.113281 249.925781 C 258.601562 249.054688 259.125 248.203125 259.683594 247.378906 C 260.246094 246.554688 260.84375 245.753906 261.476562 244.980469 C 262.109375 244.210938 262.773438 243.464844 263.472656 242.753906 C 264.167969 242.039062 264.898438 241.359375 265.65625 240.710938 C 266.414062 240.058594 267.199219 239.445312 268.011719 238.867188 C 268.824219 238.285156 269.664062 237.746094 270.523438 237.238281 C 271.386719 236.734375 272.265625 236.269531 273.167969 235.839844 C 274.070312 235.414062 274.992188 235.027344 275.925781 234.683594 C 276.863281 234.335938 277.8125 234.035156 278.777344 233.773438 C 279.742188 233.511719 280.714844 233.292969 281.699219 233.117188 C 282.679688 232.941406 283.667969 232.8125 284.664062 232.722656 C 285.65625 232.636719 286.652344 232.59375 287.652344 232.59375 Z M 287.652344 232.59375" fill="#ffffff"/></g></svg>